<?xml version="1.0" encoding="UTF-8"?>
<svg id="LOGO" xmlns="http://www.w3.org/2000/svg" version="1.1" xmlns:xlink="http://www.w3.org/1999/xlink" viewBox="0 0 600 600">
  <!-- Generator: Adobe Illustrator 29.3.1, SVG Export Plug-In . SVG Version: 2.1.0 Build 151)  -->
  <defs>
    <style>
      .st0 {
        fill: url(#linear-gradient9);
      }

      .st0, .st1, .st2, .st3, .st4, .st5, .st6, .st7, .st8, .st9, .st10, .st11, .st12, .st13, .st14 {
        stroke: #3c3c3c;
        stroke-miterlimit: 10;
      }

      .st0, .st1, .st2, .st3, .st4, .st6, .st7, .st8, .st9, .st10, .st11, .st12, .st13, .st14 {
        stroke-width: 3px;
      }

      .st1 {
        fill: url(#linear-gradient6);
      }

      .st2 {
        fill: url(#linear-gradient);
      }

      .st3 {
        fill: url(#linear-gradient13);
      }

      .st4 {
        fill: url(#linear-gradient2);
      }

      .st5 {
        fill: url(#radial-gradient);
        stroke-width: 12px;
      }

      .st6 {
        fill: url(#linear-gradient3);
      }

      .st7 {
        fill: url(#linear-gradient7);
      }

      .st8 {
        fill: url(#linear-gradient4);
      }

      .st9 {
        fill: url(#linear-gradient10);
      }

      .st10 {
        fill: url(#linear-gradient1);
      }

      .st11 {
        fill: url(#linear-gradient5);
      }

      .st12 {
        fill: url(#linear-gradient12);
      }

      .st13 {
        fill: url(#linear-gradient8);
      }

      .st14 {
        fill: url(#linear-gradient11);
      }
    </style>
    <radialGradient id="radial-gradient" cx="-1432.2" cy="7" fx="-1432.2" fy="7" r="255.8" gradientTransform="translate(-2410.9 284.9) rotate(-180) scale(1.9 .9)" gradientUnits="userSpaceOnUse">
      <stop offset="0" stop-color="#f3f3f3"/>
      <stop offset=".2" stop-color="#ededed"/>
      <stop offset=".5" stop-color="#dedede"/>
      <stop offset=".8" stop-color="#c6c6c6"/>
      <stop offset="1" stop-color="#b5b5b5"/>
    </radialGradient>
    <linearGradient id="linear-gradient" x1="-1.9" y1="296.3" x2="168.6" y2="296.3" gradientTransform="translate(0 325.8) scale(1 -1)" gradientUnits="userSpaceOnUse">
      <stop offset="0" stop-color="#939393"/>
      <stop offset="1" stop-color="#ddded8"/>
    </linearGradient>
    <linearGradient id="linear-gradient1" x1="149.9" y1="126.5" x2="300" y2="126.5" gradientTransform="translate(0 325.8) scale(1 -1)" gradientUnits="userSpaceOnUse">
      <stop offset="0" stop-color="#ddded8"/>
      <stop offset="1" stop-color="#939393"/>
    </linearGradient>
    <linearGradient id="linear-gradient2" x1="-1.9" y1="25.2" x2="299.8" y2="25.2" gradientTransform="translate(0 325.8) scale(1 -1)" gradientUnits="userSpaceOnUse">
      <stop offset="0" stop-color="#ddded8"/>
      <stop offset="1" stop-color="#939393"/>
    </linearGradient>
    <linearGradient id="linear-gradient3" x1="272.4" y1="-125.2" x2="299.9" y2="-125.2" gradientTransform="translate(0 325.8) scale(1 -1)" gradientUnits="userSpaceOnUse">
      <stop offset="0" stop-color="#ababab"/>
      <stop offset=".3" stop-color="#87898a"/>
      <stop offset=".6" stop-color="#6f7274"/>
      <stop offset=".8" stop-color="#606366"/>
      <stop offset="1" stop-color="#5b5f62"/>
    </linearGradient>
    <linearGradient id="linear-gradient4" x1="-1.9" y1="276.4" x2="149.9" y2="276.4" gradientTransform="translate(0 325.8) scale(1 -1)" gradientUnits="userSpaceOnUse">
      <stop offset="0" stop-color="#7f7f7d"/>
      <stop offset="1" stop-color="#c3c3c3"/>
    </linearGradient>
    <linearGradient id="linear-gradient5" x1="8.3" y1="74.8" x2="280.2" y2="74.8" gradientTransform="translate(0 325.8) scale(1 -1)" gradientUnits="userSpaceOnUse">
      <stop offset="0" stop-color="#ababab"/>
      <stop offset=".3" stop-color="#87898a"/>
      <stop offset=".6" stop-color="#6f7274"/>
      <stop offset=".8" stop-color="#606366"/>
      <stop offset="1" stop-color="#5b5f62"/>
    </linearGradient>
    <linearGradient id="linear-gradient6" x1="121.8" y1="89.8" x2="299.9" y2="89.8" gradientTransform="translate(0 325.8) scale(1 -1)" gradientUnits="userSpaceOnUse">
      <stop offset="0" stop-color="#c3c3c3"/>
      <stop offset="1" stop-color="#7f7f7d"/>
    </linearGradient>
    <linearGradient id="linear-gradient7" x1="431.3" y1="296.5" x2="601.8" y2="296.5" gradientTransform="translate(0 325.8) scale(1 -1)" gradientUnits="userSpaceOnUse">
      <stop offset="0" stop-color="#ddded8"/>
      <stop offset="1" stop-color="#939393"/>
    </linearGradient>
    <linearGradient id="linear-gradient8" x1="299.9" y1="126.7" x2="450" y2="126.7" gradientTransform="translate(0 325.8) scale(1 -1)" gradientUnits="userSpaceOnUse">
      <stop offset="0" stop-color="#939393"/>
      <stop offset="1" stop-color="#ddded8"/>
    </linearGradient>
    <linearGradient id="linear-gradient9" x1="300.1" y1="25.3" x2="601.8" y2="25.3" gradientTransform="translate(0 325.8) scale(1 -1)" gradientUnits="userSpaceOnUse">
      <stop offset="0" stop-color="#939393"/>
      <stop offset="1" stop-color="#ddded8"/>
    </linearGradient>
    <linearGradient id="linear-gradient10" x1="300" y1="-125" x2="327.5" y2="-125" gradientTransform="translate(0 325.8) scale(1 -1)" gradientUnits="userSpaceOnUse">
      <stop offset="0" stop-color="#5b5f62"/>
      <stop offset=".2" stop-color="#606366"/>
      <stop offset=".4" stop-color="#6f7274"/>
      <stop offset=".7" stop-color="#87898a"/>
      <stop offset="1" stop-color="#ababab"/>
    </linearGradient>
    <linearGradient id="linear-gradient11" x1="450" y1="276.7" x2="601.8" y2="276.7" gradientTransform="translate(0 325.8) scale(1 -1)" gradientUnits="userSpaceOnUse">
      <stop offset="0" stop-color="#c3c3c3"/>
      <stop offset="1" stop-color="#7f7f7d"/>
    </linearGradient>
    <linearGradient id="linear-gradient12" x1="319.7" y1="75" x2="591.6" y2="75" gradientTransform="translate(0 325.8) scale(1 -1)" gradientUnits="userSpaceOnUse">
      <stop offset="0" stop-color="#5b5f62"/>
      <stop offset=".2" stop-color="#606366"/>
      <stop offset=".4" stop-color="#6f7274"/>
      <stop offset=".7" stop-color="#87898a"/>
      <stop offset="1" stop-color="#ababab"/>
    </linearGradient>
    <linearGradient id="linear-gradient13" x1="300" y1="90" x2="478.1" y2="90" gradientTransform="translate(0 325.8) scale(1 -1)" gradientUnits="userSpaceOnUse">
      <stop offset="0" stop-color="#7f7f7d"/>
      <stop offset="1" stop-color="#c3c3c3"/>
    </linearGradient>
  </defs>
  <path class="st5" d="M275.7,574.6l-189.7-88.6c-16.5-7.7-28.6-22.8-32.9-40.8L7.7,251.8c-4.4-18.8,0-38.6,12.3-53.3L149.1,41.4c11.2-13.6,27.6-21.4,44.9-21.4h211.9c17.3,0,33.7,7.8,44.9,21.4l129.2,157.1c12.1,14.7,16.7,34.5,12.3,53.3l-45.5,193.4c-4.3,18.1-16.4,33.1-32.9,40.8l-189.7,88.6c-15.4,7.2-33.2,7.2-48.6,0h.1Z"/>
  <g>
    <path class="st2" d="M159.8,36.9L1.4.2c-.1.1-.2.3-.3.4l148.8,58.2,18.7-17.3-8.7-4.6h-.1Z"/>
    <polygon class="st10" points="300 286.7 299.9 357 149.9 58.8 168.6 41.5 177.3 46.1 300 286.7"/>
    <path class="st4" d="M299.7,599.9v-54.9l-27.4-50.6L8.3,7.6.5,1.3h0c0,.6-.2,1.2-.4,1.8l299.3,596.6h.4v.2h0Z"/>
    <polygon class="st6" points="299.9 357 299.8 545 272.4 494.4 280.2 413.1 283.5 378.3 299.9 357"/>
    <path class="st8" d="M1.1.6c-.2.2-.4.5-.6.7l7.8,6.2,113.5,90.6h0l28.2-39.3L1.1.6Z"/>
    <polygon class="st11" points="280.2 413.1 272.4 494.4 8.3 7.6 121.7 98.2 121.8 98.2 280.2 413.1"/>
    <polygon class="st1" points="299.9 357 299.9 357 283.5 378.3 280.2 413.1 121.8 98.2 149.9 58.8 299.9 357"/>
    <path class="st7" d="M598.4,0l-158.4,36.7-8.7,4.6,18.7,17.3L599.5.1h-1.1Z"/>
    <polygon class="st13" points="299.9 286.5 300 356.8 450 58.7 431.3 41.3 422.5 45.9 299.9 286.5"/>
    <path class="st0" d="M599.7.9l-8.1,6.5-264.1,486.9-27.4,50.6v55.2h.3L599.7,3.3c0-.7,0-1.3.3-1.9,0-.2-.2-.3-.3-.5Z"/>
    <polygon class="st9" points="300 356.8 300.1 544.8 327.5 494.2 319.7 412.9 316.4 378.1 300 356.8"/>
    <path class="st14" d="M599.5.1l-149.5,58.5,28.2,39.4h0L591.6,7.4l8.1-6.5c0-.2-.2-.5-.3-.7h.1Z"/>
    <polygon class="st12" points="319.7 412.9 327.5 494.2 591.6 7.4 478.1 98 478.1 98 319.7 412.9"/>
    <polygon class="st3" points="300 356.8 300 356.8 316.4 378.1 319.7 412.9 478.1 98 450 58.7 300 356.8"/>
  </g>
</svg>