<?xml version="1.0" encoding="UTF-8"?><svg id="Layer_1" xmlns="http://www.w3.org/2000/svg" xmlns:xlink="http://www.w3.org/1999/xlink" viewBox="0 0 603.37 603.56"><defs><style>.cls-1{fill:url(#linear-gradient-12);}.cls-1,.cls-2,.cls-3,.cls-4,.cls-5,.cls-6,.cls-7,.cls-8,.cls-9,.cls-10,.cls-11,.cls-12,.cls-13,.cls-14,.cls-15{stroke:#3c3c3c;stroke-miterlimit:10;}.cls-1,.cls-2,.cls-3,.cls-4,.cls-5,.cls-7,.cls-8,.cls-9,.cls-10,.cls-11,.cls-12,.cls-13,.cls-14,.cls-15{stroke-width:3px;}.cls-2{fill:url(#linear-gradient-11);}.cls-3{fill:url(#linear-gradient);}.cls-4{fill:url(#linear-gradient-9);}.cls-5{fill:url(#linear-gradient-3);}.cls-6{fill:url(#radial-gradient);stroke-width:12px;}.cls-7{fill:url(#linear-gradient-2);}.cls-8{fill:url(#linear-gradient-7);}.cls-9{fill:url(#linear-gradient-13);}.cls-10{fill:url(#linear-gradient-4);}.cls-11{fill:url(#linear-gradient-6);}.cls-12{fill:url(#linear-gradient-5);}.cls-13{fill:url(#linear-gradient-8);}.cls-14{fill:url(#linear-gradient-10);}.cls-15{fill:url(#linear-gradient-14);}</style><radialGradient id="radial-gradient" cx="-264.19" cy="176.57" fx="-264.19" fy="176.57" r="255.81" gradientTransform="translate(-190.14 465.46) rotate(-180) scale(1.86 .93)" gradientUnits="userSpaceOnUse"><stop offset="0" stop-color="#f3f3f3"/><stop offset="1" stop-color="#b5b5b5"/></radialGradient><linearGradient id="linear-gradient" x1="-.13" y1="464.08" x2="170.36" y2="464.08" gradientTransform="translate(0 495.43) scale(1 -1)" gradientUnits="userSpaceOnUse"><stop offset="0" stop-color="#939393"/><stop offset="1" stop-color="#ddd"/></linearGradient><linearGradient id="linear-gradient-2" x1="151.7" y1="294.34" x2="301.74" y2="294.34" gradientTransform="translate(0 495.43) scale(1 -1)" gradientUnits="userSpaceOnUse"><stop offset="0" stop-color="#ddd"/><stop offset="1" stop-color="#939393"/></linearGradient><linearGradient id="linear-gradient-3" x1="-.13" y1="192.99" x2="301.57" y2="192.99" xlink:href="#linear-gradient-2"/><linearGradient id="linear-gradient-4" x1="274.14" y1="42.6" x2="301.7" y2="42.6" gradientTransform="translate(0 495.43) scale(1 -1)" gradientUnits="userSpaceOnUse"><stop offset="0" stop-color="#ababab"/><stop offset="1" stop-color="#5b5b5b"/></linearGradient><linearGradient id="linear-gradient-5" x1="-.13" y1="444.2" x2="151.7" y2="444.2" gradientTransform="translate(0 495.43) scale(1 -1)" gradientUnits="userSpaceOnUse"><stop offset="0" stop-color="#7f7f7d"/><stop offset="1" stop-color="#c3c3c3"/></linearGradient><linearGradient id="linear-gradient-6" x1="10.07" y1="242.61" x2="281.94" y2="242.61" xlink:href="#linear-gradient-4"/><linearGradient id="linear-gradient-7" x1="123.55" y1="257.62" x2="301.7" y2="257.62" gradientTransform="translate(0 495.43) scale(1 -1)" gradientUnits="userSpaceOnUse"><stop offset="0" stop-color="#c3c3c3"/><stop offset="1" stop-color="#7f7f7d"/></linearGradient><linearGradient id="linear-gradient-8" x1="433.07" y1="464.27" x2="603.58" y2="464.27" xlink:href="#linear-gradient-2"/><linearGradient id="linear-gradient-9" x1="301.7" y1="294.53" x2="451.74" y2="294.53" xlink:href="#linear-gradient"/><linearGradient id="linear-gradient-10" x1="301.87" y1="193.16" x2="603.58" y2="193.16" xlink:href="#linear-gradient"/><linearGradient id="linear-gradient-11" x1="301.74" y1="42.79" x2="329.29" y2="42.79" gradientTransform="translate(0 495.43) scale(1 -1)" gradientUnits="userSpaceOnUse"><stop offset="0" stop-color="#5b5b5b"/><stop offset="1" stop-color="#ababab"/></linearGradient><linearGradient id="linear-gradient-12" x1="451.74" y1="444.51" x2="603.58" y2="444.51" xlink:href="#linear-gradient-7"/><linearGradient id="linear-gradient-13" x1="321.49" y1="242.8" x2="593.38" y2="242.8" xlink:href="#linear-gradient-11"/><linearGradient id="linear-gradient-14" x1="301.74" y1="257.81" x2="479.9" y2="257.81" xlink:href="#linear-gradient-5"/></defs><path class="cls-6" d="M277.49,576.43l-189.68-88.56c-16.47-7.69-28.59-22.75-32.85-40.84L9.44,253.67c-4.42-18.76.14-38.57,12.26-53.31L150.94,43.25c11.17-13.58,27.59-21.41,44.89-21.41h211.93c17.3,0,33.71,7.83,44.89,21.42l129.24,157.12c12.12,14.74,16.68,34.55,12.26,53.31l-45.52,193.36c-4.25,18.08-16.38,33.15-32.85,40.84l-189.68,88.56c-15.45,7.21-33.16,7.21-48.61,0h.02Z"/><path class="cls-3" d="M161.62,38.76L3.16,2.02c-.1.14-.19.28-.29.41l148.83,58.25,18.67-17.31-8.74-4.61h0Z"/><polygon class="cls-7" points="301.74 288.49 301.7 358.82 151.7 60.68 170.36 43.37 179.13 47.96 301.74 288.49"/><path class="cls-5" d="M301.53,601.73l.04-54.93-27.43-50.56L10.07,9.4,2.25,3.16s-.06.05-.08.07c-.08.63-.21,1.24-.38,1.84l299.33,596.61c.15.01.29.03.43.05h-.01Z"/><polygon class="cls-10" points="301.7 358.86 301.57 546.8 274.14 496.24 281.94 414.94 285.28 380.14 301.7 358.86"/><path class="cls-12" d="M2.87,2.43c-.19.25-.4.5-.62.72l7.82,6.24,113.46,90.63.02.02,28.15-39.37L2.87,2.43Z"/><polygon class="cls-11" points="281.94 414.94 274.14 496.24 10.07 9.4 123.53 100.03 123.55 100.05 281.94 414.94"/><polygon class="cls-8" points="301.7 358.82 301.7 358.86 285.28 380.14 281.94 414.94 123.55 100.05 151.7 60.68 301.7 358.82"/><path class="cls-13" d="M600.24,1.84l-158.42,36.73-8.74,4.61,18.67,17.31L601.24,1.98s0-.03-.01-.04c-.34-.02-.66-.05-.98-.1h-.01Z"/><polygon class="cls-4" points="301.7 288.3 301.74 358.63 451.74 60.49 433.07 43.18 424.31 47.77 301.7 288.3"/><path class="cls-14" d="M601.52,2.71l-8.14,6.5-264.07,486.85-27.43,50.56.04,55.18c.08.02.17.02.26.04L601.51,5.18c.04-.66.13-1.31.28-1.95-.09-.18-.19-.34-.27-.52Z"/><polygon class="cls-2" points="301.74 358.67 301.87 546.61 329.29 496.05 321.49 414.75 318.15 379.95 301.74 358.67"/><path class="cls-1" d="M601.24,1.98l-149.49,58.51,28.15,39.37.02-.02,113.46-90.63,8.14-6.5c-.1-.24-.2-.48-.28-.73Z"/><polygon class="cls-9" points="321.49 414.75 329.29 496.05 593.38 9.21 479.92 99.84 479.9 99.86 321.49 414.75"/><polygon class="cls-15" points="301.74 358.63 301.74 358.67 318.15 379.95 321.49 414.75 479.9 99.86 451.74 60.49 301.74 358.63"/></svg>