<?xml version="1.0" encoding="UTF-8"?><svg id="Layer_1" xmlns="http://www.w3.org/2000/svg" viewBox="0 0 348.25 313"><defs><style>.cls-1{fill:#7f7f7f;}.cls-1,.cls-2,.cls-3,.cls-4,.cls-5,.cls-6,.cls-7,.cls-8,.cls-9,.cls-10,.cls-11,.cls-12,.cls-13,.cls-14{stroke-miterlimit:10;}.cls-1,.cls-2,.cls-3,.cls-4,.cls-5,.cls-6,.cls-7,.cls-8,.cls-9,.cls-12,.cls-13,.cls-14{stroke:#999;}.cls-2{fill:#6d6d6d;}.cls-3,.cls-8{stroke-width:.5px;}.cls-3,.cls-9{fill:#373737;}.cls-4,.cls-8{fill:#666;}.cls-5{fill:#ccc;}.cls-6{fill:#e6e6e6;}.cls-7{fill:#f2f2f2;}.cls-10{fill:#c8c8c8;stroke:#232323;stroke-width:13px;}.cls-11{fill:#333;stroke:gray;}.cls-12{fill:#c6c6c6;}.cls-13{fill:#4f4f4f;}.cls-14{fill:#7c7c7c;}</style></defs><path class="cls-10" d="M239.9,6.5H108.35c-12.89,0-24.8,6.88-31.24,18.04L11.33,138.46c-6.44,11.16-6.44,24.91,0,36.08l65.77,113.92c6.44,11.16,18.35,18.04,31.24,18.04h131.55c12.89,0,24.8-6.88,31.24-18.04l65.77-113.92c6.44-11.16,6.44-24.91,0-36.08l-65.77-113.92c-6.44-11.16-18.35-18.04-31.24-18.04Z"/><path class="cls-11" d="M176.12,306.49L324.12,26.98c-.05-.09-.09-.18-.13-.27l-16.06,12.05h0s-119.35,219.01-119.35,219.01l-13.96,25.62,1.34,23.11c.05,0,.1,0,.16,0Z"/><path class="cls-4" d="M175.97,306.49l-1.34-23.11-14.01-25.68L43.16,42.4l-19-13.93s-.03.02-.04.03l151.72,278s.08,0,.12,0Z"/><path class="cls-7" d="M103.52,43.95L24.23,28.42s-.02.01-.03.02l74.27,25.72,9.48-8.05-4.44-2.15Z"/><polygon class="cls-12" points="254.29 54.11 176.32 195.85 98.48 54.15 107.96 46.1 112.41 48.24 174.73 163.87 238.9 48.74 242.59 46.93 254.29 54.11"/><polygon class="cls-1" points="264.8 71.1 186.42 217.87 185.56 202.15 176.32 195.85 254.29 54.11 264.8 71.1"/><path class="cls-6" d="M323.89,26.5l-77.62,18.63-3.69,1.81,11.7,7.18,69.63-27.54s-.02-.05-.03-.07Z"/><polygon class="cls-13" points="307.92 38.77 188.58 257.76 186.42 217.87 264.8 71.1 307.92 38.77"/><polygon class="cls-9" points="164.66 219.01 160.62 257.7 43.16 42.39 84.17 72.48 164.66 219.01"/><polygon class="cls-14" points="176.32 195.85 166.36 202.82 164.66 219.01 84.17 72.48 98.48 54.15 176.32 195.85"/><polygon class="cls-8" points="188.58 257.77 174.63 283.39 176.32 195.85 185.57 202.16 186.42 217.87 188.58 257.77"/><polygon class="cls-3" points="176.32 195.85 174.63 283.39 160.62 257.71 164.67 219.02 166.37 202.83 176.32 195.85"/><path class="cls-5" d="M24.21,28.44s-.03.02-.04.03l18.99,13.93,41.01,30.09,14.31-18.33L24.21,28.44Z"/><path class="cls-2" d="M323.92,26.57l-69.63,27.54,10.51,16.99,43.12-32.34h0s16.07-12.06,16.07-12.06c-.02-.05-.05-.09-.07-.14Z"/></svg>