<?xml version="1.0" encoding="UTF-8"?>
<svg id="Layer_1" xmlns="http://www.w3.org/2000/svg" version="1.1" xmlns:xlink="http://www.w3.org/1999/xlink" viewBox="0 0 512 512">
  <!-- Generator: Adobe Illustrator 29.3.1, SVG Export Plug-In . SVG Version: 2.1.0 Build 151)  -->
  <defs>
    <style>
      .st0 {
        fill: url(#linear-gradient5);
      }

      .st0, .st1, .st2, .st3, .st4, .st5, .st6, .st7, .st8, .st9, .st10, .st11, .st12, .st13, .st14, .st15 {
        stroke: #232323;
        stroke-miterlimit: 10;
      }

      .st1 {
        fill: url(#linear-gradient13);
      }

      .st2 {
        fill: url(#linear-gradient7);
      }

      .st3 {
        fill: url(#linear-gradient9);
      }

      .st4 {
        fill: url(#linear-gradient1);
      }

      .st5 {
        fill: url(#linear-gradient);
      }

      .st6 {
        fill: url(#linear-gradient8);
      }

      .st7 {
        fill: url(#linear-gradient12);
      }

      .st8 {
        fill: url(#linear-gradient2);
      }

      .st9 {
        fill: url(#linear-gradient11);
      }

      .st10 {
        fill: url(#linear-gradient3);
      }

      .st11 {
        fill: url(#linear-gradient4);
      }

      .st12 {
        fill: url(#linear-gradient6);
      }

      .st13 {
        fill: url(#radial-gradient);
        stroke-width: 6px;
      }

      .st14 {
        display: none;
        fill: none;
      }

      .st15 {
        fill: url(#linear-gradient10);
      }
    </style>
    <radialGradient id="radial-gradient" cx="256.9" cy="311.7" fx="256.9" fy="311.7" r="240" gradientTransform="translate(0 -56.6)" gradientUnits="userSpaceOnUse">
      <stop offset="0" stop-color="#fff"/>
      <stop offset="0" stop-color="#fcfbf7"/>
      <stop offset=".2" stop-color="#f5f0e2"/>
      <stop offset=".4" stop-color="#e9dec0"/>
      <stop offset=".6" stop-color="#d8c690"/>
      <stop offset=".8" stop-color="#c3a753"/>
      <stop offset="1" stop-color="#a9810a"/>
      <stop offset="1" stop-color="#a67c00"/>
    </radialGradient>
    <linearGradient id="linear-gradient" x1="-.7" y1="99.7" x2="144.8" y2="99.7" gradientTransform="translate(0 -56)" gradientUnits="userSpaceOnUse">
      <stop offset="0" stop-color="#ffbf00"/>
      <stop offset="0" stop-color="#fac219"/>
      <stop offset=".3" stop-color="#f1ca54"/>
      <stop offset=".4" stop-color="#e9d084"/>
      <stop offset=".6" stop-color="#e3d5aa"/>
      <stop offset=".8" stop-color="#dfd9c5"/>
      <stop offset=".9" stop-color="#dcdbd6"/>
      <stop offset="1" stop-color="#dcdcdc"/>
    </linearGradient>
    <linearGradient id="linear-gradient1" x1="128.8" y1="232.9" x2="256.9" y2="232.9" gradientTransform="translate(0 -56)" gradientUnits="userSpaceOnUse">
      <stop offset="0" stop-color="#dcdcdc"/>
      <stop offset="0" stop-color="#dbd9d6"/>
      <stop offset=".3" stop-color="#d8d3c5"/>
      <stop offset=".5" stop-color="#d3c9aa"/>
      <stop offset=".7" stop-color="#cdbb84"/>
      <stop offset=".9" stop-color="#c5a854"/>
      <stop offset="1" stop-color="#bf9b30"/>
    </linearGradient>
    <linearGradient id="linear-gradient2" x1="-.7" y1="312.5" x2="256.7" y2="312.5" gradientTransform="translate(0 -56)" gradientUnits="userSpaceOnUse">
      <stop offset="0" stop-color="#dcdcdc"/>
      <stop offset="0" stop-color="#dbd9d6"/>
      <stop offset=".3" stop-color="#d8d3c5"/>
      <stop offset=".5" stop-color="#d3c9aa"/>
      <stop offset=".7" stop-color="#cdbb84"/>
      <stop offset=".9" stop-color="#c5a854"/>
      <stop offset="1" stop-color="#bf9b30"/>
    </linearGradient>
    <linearGradient id="linear-gradient3" x1="233.3" y1="430.5" x2="256.8" y2="430.5" gradientTransform="translate(0 -56)" gradientUnits="userSpaceOnUse">
      <stop offset="0" stop-color="#a67c00"/>
      <stop offset=".2" stop-color="#9d7605"/>
      <stop offset=".4" stop-color="#846712"/>
      <stop offset=".8" stop-color="#5d5029"/>
      <stop offset="1" stop-color="#3c3c3c"/>
    </linearGradient>
    <linearGradient id="linear-gradient4" x1="-.7" y1="115.3" x2="128.8" y2="115.3" gradientTransform="translate(0 -56)" gradientUnits="userSpaceOnUse">
      <stop offset="0" stop-color="#3c3c3c"/>
      <stop offset="1" stop-color="#bf9b30"/>
    </linearGradient>
    <linearGradient id="linear-gradient5" x1="8" y1="273.5" x2="240" y2="273.5" gradientTransform="translate(0 -56)" gradientUnits="userSpaceOnUse">
      <stop offset="0" stop-color="#a67c00"/>
      <stop offset=".2" stop-color="#9d7605"/>
      <stop offset=".4" stop-color="#846712"/>
      <stop offset=".8" stop-color="#5d5029"/>
      <stop offset="1" stop-color="#3c3c3c"/>
    </linearGradient>
    <linearGradient id="linear-gradient6" x1="104.8" y1="261.7" x2="256.8" y2="261.7" gradientTransform="translate(0 -56)" gradientUnits="userSpaceOnUse">
      <stop offset="0" stop-color="#bf9b30"/>
      <stop offset="1" stop-color="#3c3c3c"/>
    </linearGradient>
    <linearGradient id="linear-gradient7" x1="368.9" y1="99.6" x2="514.3" y2="99.6" gradientTransform="translate(0 -56)" gradientUnits="userSpaceOnUse">
      <stop offset="0" stop-color="#dcdcdc"/>
      <stop offset="0" stop-color="#dbd9d6"/>
      <stop offset=".3" stop-color="#d8d3c5"/>
      <stop offset=".5" stop-color="#d3c9aa"/>
      <stop offset=".7" stop-color="#cdbb84"/>
      <stop offset=".9" stop-color="#c5a854"/>
      <stop offset="1" stop-color="#bf9b30"/>
    </linearGradient>
    <linearGradient id="linear-gradient8" x1="256.8" y1="232.8" x2="384.9" y2="232.8" gradientTransform="translate(0 -56)" gradientUnits="userSpaceOnUse">
      <stop offset="0" stop-color="#ffbf00"/>
      <stop offset="0" stop-color="#fac219"/>
      <stop offset=".3" stop-color="#f1ca54"/>
      <stop offset=".4" stop-color="#e9d084"/>
      <stop offset=".6" stop-color="#e3d5aa"/>
      <stop offset=".8" stop-color="#dfd9c5"/>
      <stop offset=".9" stop-color="#dcdbd6"/>
      <stop offset="1" stop-color="#dcdcdc"/>
    </linearGradient>
    <linearGradient id="linear-gradient9" x1="257.1" y1="312.3" x2="514.5" y2="312.3" gradientTransform="translate(0 -56)" gradientUnits="userSpaceOnUse">
      <stop offset="0" stop-color="#ffbf00"/>
      <stop offset="0" stop-color="#fac219"/>
      <stop offset=".3" stop-color="#f1ca54"/>
      <stop offset=".4" stop-color="#e9d084"/>
      <stop offset=".6" stop-color="#e3d5aa"/>
      <stop offset=".8" stop-color="#dfd9c5"/>
      <stop offset=".9" stop-color="#dcdbd6"/>
      <stop offset="1" stop-color="#dcdcdc"/>
    </linearGradient>
    <linearGradient id="linear-gradient10" x1="256.9" y1="430.3" x2="280.4" y2="430.3" gradientTransform="translate(0 -56)" gradientUnits="userSpaceOnUse">
      <stop offset="0" stop-color="#3c3c3c"/>
      <stop offset=".2" stop-color="#5d5029"/>
      <stop offset=".6" stop-color="#846712"/>
      <stop offset=".8" stop-color="#9d7605"/>
      <stop offset="1" stop-color="#a67c00"/>
    </linearGradient>
    <linearGradient id="linear-gradient11" x1="384.8" y1="115.1" x2="514.3" y2="115.1" gradientTransform="translate(0 -56)" gradientUnits="userSpaceOnUse">
      <stop offset="0" stop-color="#bf9b30"/>
      <stop offset="1" stop-color="#3c3c3c"/>
    </linearGradient>
    <linearGradient id="linear-gradient12" x1="273.7" y1="273.3" x2="505.7" y2="273.3" gradientTransform="translate(0 -56)" gradientUnits="userSpaceOnUse">
      <stop offset="0" stop-color="#3c3c3c"/>
      <stop offset=".2" stop-color="#5d5029"/>
      <stop offset=".6" stop-color="#846712"/>
      <stop offset=".8" stop-color="#9d7605"/>
      <stop offset="1" stop-color="#a67c00"/>
    </linearGradient>
    <linearGradient id="linear-gradient13" x1="256.9" y1="261.6" x2="408.9" y2="261.6" gradientTransform="translate(0 -56)" gradientUnits="userSpaceOnUse">
      <stop offset="0" stop-color="#3c3c3c"/>
      <stop offset="1" stop-color="#bf9b30"/>
    </linearGradient>
  </defs>
  <rect class="st14" x="-379" width="891" height="752"/>
  <g>
    <path class="st13" d="M358.2,27.8h-202.6c-17.5,0-33.6,9.4-42.2,24.6L11.4,232.1c-8.4,14.9-8.4,33.1,0,47.9l102,179.7c8.6,15.2,24.7,24.6,42.2,24.6h202.6c17.5,0,33.6-9.4,42.2-24.6l102-179.7c8.4-14.9,8.4-33.1,0-47.9l-102-179.7c-8.6-15.2-24.7-24.6-42.2-24.6h0Z"/>
    <path class="st5" d="M137.3,49.5L2.1,20.7c0,.1-.2.2-.3.3l127,45.7,15.9-13.6-7.5-3.6h.1Z"/>
    <polygon class="st4" points="256.9 245.5 256.8 300.7 128.8 66.7 144.8 53.1 152.2 56.7 256.9 245.5"/>
    <path class="st8" d="M256.7,491.4v-43.1l-23.4-39.7L8,26.5l-6.7-4.9h0c0,.5-.2,1-.3,1.4l255.4,468.2h.4v.2Z"/>
    <polygon class="st10" points="256.8 300.7 256.7 448.3 233.3 408.6 240 344.8 242.8 317.5 256.8 300.7"/>
    <path class="st11" d="M1.8,21c-.2.2-.3.4-.5.6l6.7,4.9,96.8,71.1h0l24-30.9L1.8,21h0Z"/>
    <polygon class="st0" points="240 344.8 233.3 408.6 8 26.5 104.8 97.6 104.8 97.6 240 344.8"/>
    <polygon class="st12" points="256.8 300.7 256.8 300.7 242.8 317.5 240 344.8 104.8 97.6 128.8 66.7 256.8 300.7"/>
    <path class="st2" d="M511.6,20.6l-135.2,28.8-7.5,3.6,15.9,13.6,127.5-45.9h0c-.3,0-.6,0-.8-.1h0Z"/>
    <polygon class="st6" points="256.8 245.4 256.9 300.6 384.9 66.6 368.9 53 361.5 56.6 256.8 245.4"/>
    <path class="st3" d="M512.7,21.2l-6.9,5.1-225.3,382.1-23.4,39.7v43.3h.3L512.8,23.1c0-.5,0-1,.2-1.5,0-.1-.2-.3-.2-.4h0Z"/>
    <polygon class="st15" points="256.9 300.6 257 448.1 280.4 408.4 273.7 344.6 270.9 317.3 256.9 300.6"/>
    <path class="st9" d="M512.4,20.7l-127.6,45.9,24,30.9h0l96.8-71.1,6.9-5.1c0-.2-.2-.4-.2-.6h0Z"/>
    <polygon class="st7" points="273.7 344.6 280.4 408.4 505.7 26.3 408.9 97.5 408.9 97.5 273.7 344.6"/>
    <polygon class="st1" points="256.9 300.6 256.9 300.6 270.9 317.3 273.7 344.6 408.9 97.5 384.9 66.6 256.9 300.6"/>
  </g>
</svg>