<?xml version="1.0" encoding="UTF-8"?><svg id="Layer_1" xmlns="http://www.w3.org/2000/svg" xmlns:xlink="http://www.w3.org/1999/xlink" viewBox="0 0 326.35 300.3"><defs><style>.cls-1{fill:url(#linear-gradient-8);}.cls-1,.cls-2,.cls-3,.cls-4,.cls-5,.cls-6,.cls-7,.cls-8,.cls-9,.cls-10,.cls-11,.cls-12,.cls-13,.cls-14,.cls-15{stroke:#232323;stroke-miterlimit:10;}.cls-2{fill:url(#linear-gradient-14);}.cls-3{fill:url(#linear-gradient-2);}.cls-4{fill:url(#linear-gradient-13);}.cls-5{fill:url(#linear-gradient-11);}.cls-6{fill:url(#linear-gradient-4);}.cls-7{fill:url(#linear-gradient-5);}.cls-8{fill:url(#linear-gradient-9);}.cls-9{fill:url(#linear-gradient-3);}.cls-10{fill:url(#linear-gradient);}.cls-11{fill:url(#linear-gradient-10);}.cls-12{fill:url(#linear-gradient-6);}.cls-13{fill:url(#linear-gradient-12);}.cls-14{fill:url(#linear-gradient-7);}.cls-15{fill:url(#radial-gradient);stroke-width:6px;}</style><radialGradient id="radial-gradient" cx="163.18" cy="150.21" fx="163.18" fy="150.21" r="152.38" gradientTransform="translate(-.08 -.63)" gradientUnits="userSpaceOnUse"><stop offset="0" stop-color="#fff"/><stop offset=".09" stop-color="#fcfbf7"/><stop offset=".22" stop-color="#f5f0e2"/><stop offset=".38" stop-color="#e9dec0"/><stop offset=".56" stop-color="#d8c690"/><stop offset=".76" stop-color="#c3a753"/><stop offset=".97" stop-color="#a9810a"/><stop offset="1" stop-color="#a67c00"/></radialGradient><linearGradient id="linear-gradient" x1="-.5" y1="15.28" x2="91.93" y2="15.28" gradientUnits="userSpaceOnUse"><stop offset="0" stop-color="#ffbf00"/><stop offset=".07" stop-color="#fac219"/><stop offset=".26" stop-color="#f1ca54"/><stop offset=".44" stop-color="#e9d084"/><stop offset=".61" stop-color="#e3d5aa"/><stop offset=".76" stop-color="#dfd9c5"/><stop offset=".9" stop-color="#dcdbd6"/><stop offset="1" stop-color="#dcdcdc"/></linearGradient><linearGradient id="linear-gradient-2" x1="81.81" y1="99.92" x2="163.15" y2="99.92" gradientUnits="userSpaceOnUse"><stop offset="0" stop-color="#dcdcdc"/><stop offset=".12" stop-color="#dbd9d6"/><stop offset=".28" stop-color="#d8d3c5"/><stop offset=".46" stop-color="#d3c9aa"/><stop offset=".66" stop-color="#cdbb84"/><stop offset=".86" stop-color="#c5a854"/><stop offset="1" stop-color="#bf9b30"/></linearGradient><linearGradient id="linear-gradient-3" x1="-.5" y1="150.45" x2="163.06" y2="150.45" xlink:href="#linear-gradient-2"/><linearGradient id="linear-gradient-4" x1="148.19" y1="225.44" x2="163.13" y2="225.44" gradientUnits="userSpaceOnUse"><stop offset="0" stop-color="#a67c00"/><stop offset=".16" stop-color="#9d7605"/><stop offset=".43" stop-color="#846712"/><stop offset=".76" stop-color="#5d5029"/><stop offset="1" stop-color="#3c3c3c"/></linearGradient><linearGradient id="linear-gradient-5" x1="-.5" y1="25.2" x2="81.81" y2="25.2" gradientUnits="userSpaceOnUse"><stop offset="0" stop-color="#3c3c3c"/><stop offset="1" stop-color="#bf9b30"/></linearGradient><linearGradient id="linear-gradient-6" x1="5.03" y1="125.71" x2="152.42" y2="125.71" xlink:href="#linear-gradient-4"/><linearGradient id="linear-gradient-7" x1="66.55" y1="118.22" x2="163.13" y2="118.22" gradientUnits="userSpaceOnUse"><stop offset="0" stop-color="#bf9b30"/><stop offset="1" stop-color="#3c3c3c"/></linearGradient><linearGradient id="linear-gradient-8" x1="234.35" y1="15.19" x2="326.78" y2="15.19" xlink:href="#linear-gradient-2"/><linearGradient id="linear-gradient-9" x1="163.13" y1="99.82" x2="244.47" y2="99.82" xlink:href="#linear-gradient"/><linearGradient id="linear-gradient-10" x1="163.22" y1="150.37" x2="326.78" y2="150.37" xlink:href="#linear-gradient"/><linearGradient id="linear-gradient-11" x1="163.15" y1="225.34" x2="178.09" y2="225.34" gradientUnits="userSpaceOnUse"><stop offset="0" stop-color="#3c3c3c"/><stop offset=".24" stop-color="#5d5029"/><stop offset=".57" stop-color="#846712"/><stop offset=".84" stop-color="#9d7605"/><stop offset="1" stop-color="#a67c00"/></linearGradient><linearGradient id="linear-gradient-12" x1="244.47" y1="25.04" x2="326.78" y2="25.04" xlink:href="#linear-gradient-7"/><linearGradient id="linear-gradient-13" x1="173.86" y1="125.61" x2="321.25" y2="125.61" xlink:href="#linear-gradient-11"/><linearGradient id="linear-gradient-14" x1="163.15" y1="118.13" x2="259.73" y2="118.13" xlink:href="#linear-gradient-5"/></defs><path class="cls-15" d="M227.54,5.15H98.82c-11.1,0-21.34,5.96-26.81,15.61L7.2,134.93c-5.36,9.44-5.36,21,0,30.44l64.81,114.17c5.48,9.65,15.72,15.61,26.81,15.61h128.72c11.1,0,21.34-5.96,26.81-15.61l64.81-114.17c5.36-9.44,5.36-21,0-30.44L254.35,20.76c-5.48-9.65-15.72-15.61-26.81-15.61Z"/><path class="cls-10" d="M87.19,18.97L1.29.66c-.05.07-.1.14-.16.2l80.68,29.04,10.12-8.63-4.74-2.3Z"/><polygon class="cls-3" points="163.15 143.49 163.13 178.56 81.81 29.9 91.93 21.27 96.68 23.56 163.15 143.49"/><path class="cls-9" d="M163.04,299.68l.02-27.39-14.87-25.21L5.03,4.33.79,1.22s-.03.02-.05.04c-.04.31-.11.62-.21.92l162.27,297.48c.08,0,.16.02.23.03Z"/><polygon class="cls-6" points="163.13 178.58 163.06 272.29 148.19 247.08 152.42 206.54 154.23 189.19 163.13 178.58"/><path class="cls-7" d="M1.13.86c-.11.13-.22.25-.34.36l4.24,3.11,61.51,45.19h0s15.26-19.62,15.26-19.62L1.13.86Z"/><polygon class="cls-12" points="152.42 206.54 148.19 247.08 5.03 4.33 66.54 49.52 66.55 49.53 152.42 206.54"/><polygon class="cls-14" points="163.13 178.56 163.13 178.58 154.23 189.19 152.42 206.54 66.55 49.53 81.81 29.9 163.13 178.56"/><path class="cls-1" d="M324.98.57l-85.88,18.31-4.74,2.3,10.12,8.63L325.51.64s0-.01,0-.02c-.18,0-.36-.03-.53-.05Z"/><polygon class="cls-8" points="163.13 143.4 163.15 178.47 244.47 29.81 234.35 21.18 229.6 23.47 163.13 143.4"/><path class="cls-11" d="M325.67,1l-4.41,3.24-143.16,242.75-14.87,25.21.02,27.51s.09.01.14.02L325.66,2.23c.02-.33.07-.66.15-.97-.05-.09-.1-.17-.15-.26Z"/><polygon class="cls-5" points="163.15 178.49 163.22 272.2 178.09 246.99 173.86 206.45 172.05 189.1 163.15 178.49"/><path class="cls-13" d="M325.51.64l-81.04,29.17,15.26,19.63h0s61.51-45.2,61.51-45.2l4.41-3.24c-.06-.12-.11-.24-.15-.36Z"/><polygon class="cls-4" points="173.86 206.45 178.09 246.99 321.25 4.24 259.74 49.43 259.73 49.44 173.86 206.45"/><polygon class="cls-2" points="163.15 178.47 163.15 178.49 172.05 189.1 173.86 206.45 259.73 49.44 244.47 29.81 163.15 178.47"/></svg>