<svg id="LOGO" xmlns="http://www.w3.org/2000/svg" viewBox="0 0 600 600"><defs><linearGradient id="a" x1="467.5" x2="429.2" y1="-316.9" y2="-294.8" gradientTransform="matrix(1 0 0 -1 0 -6)" gradientUnits="userSpaceOnUse"><stop offset="0" stop-color="#c4c4c4"/><stop offset=".2" stop-color="#bbb"/><stop offset=".6" stop-color="#a2a2a2"/><stop offset="1" stop-color="gray"/></linearGradient><linearGradient id="b" x1="344.8" x2="387.6" y1="-193.2" y2="-217.9" gradientTransform="matrix(1 0 0 -1 0 -6)" gradientUnits="userSpaceOnUse"><stop offset="0" stop-color="#c4c4c4"/><stop offset=".2" stop-color="#bbb"/><stop offset=".6" stop-color="#a2a2a2"/><stop offset="1" stop-color="gray"/></linearGradient><linearGradient id="c" x1="503.3" x2="527.5" y1="-5.9" y2="-47.9" gradientTransform="matrix(1 0 0 -1 0 -6)" gradientUnits="userSpaceOnUse"><stop offset="0" stop-color="#c4c4c4"/><stop offset=".2" stop-color="#bbb"/><stop offset=".6" stop-color="#a2a2a2"/><stop offset="1" stop-color="gray"/></linearGradient><linearGradient id="d" x1="132.6" x2="170.6" y1="-316.9" y2="-295" gradientTransform="matrix(1 0 0 -1 0 -6)" gradientUnits="userSpaceOnUse"><stop offset="0" stop-color="#c4c4c4"/><stop offset=".2" stop-color="#bbb"/><stop offset=".6" stop-color="#a2a2a2"/><stop offset="1" stop-color="gray"/></linearGradient><linearGradient id="e" x1="257.9" x2="215.2" y1="-191.8" y2="-216.5" gradientTransform="matrix(1 0 0 -1 0 -6)" gradientUnits="userSpaceOnUse"><stop offset="0" stop-color="#c4c4c4"/><stop offset=".2" stop-color="#bbb"/><stop offset=".6" stop-color="#a2a2a2"/><stop offset="1" stop-color="gray"/></linearGradient><linearGradient id="f" x1="96.9" x2="72.8" y1="-6.3" y2="-48.2" gradientTransform="matrix(1 0 0 -1 0 -6)" gradientUnits="userSpaceOnUse"><stop offset="0" stop-color="#c4c4c4"/><stop offset=".2" stop-color="#bbb"/><stop offset=".6" stop-color="#a2a2a2"/><stop offset="1" stop-color="gray"/></linearGradient><linearGradient id="g" x1="407.3" x2="465.9" y1="-226.8" y2="-260.7" gradientTransform="matrix(1 0 0 -1 0 -6)" gradientUnits="userSpaceOnUse"><stop offset="0" stop-color="#505050"/><stop offset=".2" stop-color="#585858"/><stop offset=".6" stop-color="#717171"/><stop offset="1" stop-color="#909090"/></linearGradient><linearGradient id="h" x1="192.6" x2="134" y1="-227" y2="-260.9" gradientTransform="matrix(1 0 0 -1 0 -6)" gradientUnits="userSpaceOnUse"><stop offset="0" stop-color="#505050"/><stop offset=".2" stop-color="#585858"/><stop offset=".6" stop-color="#717171"/><stop offset="1" stop-color="#909090"/></linearGradient><linearGradient id="i" x1="300" x2="327.5" y1="-457" y2="-457" gradientTransform="matrix(1 0 0 -1 0 -6)" gradientUnits="userSpaceOnUse"><stop offset="0" stop-color="#505050"/><stop offset=".2" stop-color="#585858"/><stop offset=".6" stop-color="#717171"/><stop offset="1" stop-color="#909090"/></linearGradient><linearGradient id="j" x1="299.9" x2="272.4" y1="-457.2" y2="-457.2" gradientTransform="matrix(1 0 0 -1 0 -6)" gradientUnits="userSpaceOnUse"><stop offset="0" stop-color="#505050"/><stop offset=".2" stop-color="#585858"/><stop offset=".6" stop-color="#717171"/><stop offset="1" stop-color="#909090"/></linearGradient><linearGradient id="k" x1="357" x2="412.7" y1="-225.9" y2="-258.1" gradientTransform="matrix(1 0 0 -1 0 -6)" gradientUnits="userSpaceOnUse"><stop offset="0" stop-color="#b4b4b4"/><stop offset=".2" stop-color="#979797"/><stop offset=".5" stop-color="#7c7c7c"/><stop offset=".8" stop-color="#6b6b6b"/><stop offset="1" stop-color="#666"/></linearGradient><linearGradient id="l" x1="518.7" x2="542.8" y1="-25.1" y2="-66.9" gradientTransform="matrix(1 0 0 -1 0 -6)" gradientUnits="userSpaceOnUse"><stop offset="0" stop-color="#b4b4b4"/><stop offset=".2" stop-color="#979797"/><stop offset=".5" stop-color="#7c7c7c"/><stop offset=".8" stop-color="#6b6b6b"/><stop offset="1" stop-color="#666"/></linearGradient><linearGradient id="m" x1="242.9" x2="187.2" y1="-226.1" y2="-258.2" gradientTransform="matrix(1 0 0 -1 0 -6)" gradientUnits="userSpaceOnUse"><stop offset="0" stop-color="#b4b4b4"/><stop offset=".2" stop-color="#979797"/><stop offset=".5" stop-color="#7c7c7c"/><stop offset=".8" stop-color="#6b6b6b"/><stop offset="1" stop-color="#666"/></linearGradient><linearGradient id="n" x1="81.5" x2="57.4" y1="-25.4" y2="-67.1" gradientTransform="matrix(1 0 0 -1 0 -6)" gradientUnits="userSpaceOnUse"><stop offset="0" stop-color="#b4b4b4"/><stop offset=".2" stop-color="#979797"/><stop offset=".5" stop-color="#7c7c7c"/><stop offset=".8" stop-color="#6b6b6b"/><stop offset="1" stop-color="#666"/></linearGradient></defs><path d="M276 563 86 474c-16-8-29-23-33-41L8 240c-5-19 0-39 12-53L149 29c11-13 28-21 45-21h212c17 0 34 8 45 21l129 158c12 14 17 34 12 53l-45 193c-5 18-17 33-33 41l-190 89c-15 7-33 7-48 0Z" style="stroke-miterlimit:10;fill:#646464;stroke:#a3a3a3;stroke-width:9px"/><path d="m600 1-8 6-264 487-28 51v55L600 3V1Z" style="fill:url(#a);stroke:#616e7c;stroke-width:3px;stroke-miterlimit:10"/><path d="M300 287v70L450 59l-19-18-8 5-123 241z" style="fill:url(#b);stroke:#616e7c;stroke-width:3px;stroke-miterlimit:10"/><path d="M598 0 440 37l-9 4 19 18L600 0h-2Z" style="fill:url(#c);stroke:#616e7c;stroke-width:3px;stroke-miterlimit:10"/><path d="M300 600v-55l-28-51L8 8 1 1 0 3l299 597h1Z" style="fill:url(#d);stroke:#616e7c;stroke-width:3px;stroke-miterlimit:10"/><path d="M300 287v70L150 59l19-17 8 4 123 241z" style="fill:url(#e);stroke:#616e7c;stroke-width:3px;stroke-miterlimit:10"/><path d="M160 37 1 0v1l149 58 19-17-9-5Z" style="stroke:#616e7c;stroke-width:3px;fill:url(#f);stroke-miterlimit:10"/><path d="m320 413 8 81L592 7 478 98 320 413z" style="fill:url(#g);stroke:#616e7c;stroke-width:3px;stroke-miterlimit:10"/><path d="m280 413-8 81L8 8l114 90 158 315z" style="fill:url(#h);stroke:#616e7c;stroke-width:3px;stroke-miterlimit:10"/><path d="M300 357v188l28-51-8-81-4-35-16-21z" style="fill:url(#i);stroke:#616e7c;stroke-width:3px;stroke-miterlimit:10"/><path d="M300 357v188l-28-51 8-81 4-35 16-21z" style="fill:url(#j);stroke:#616e7c;stroke-width:3px;stroke-miterlimit:10"/><path d="m300 357 16 21 4 35L478 98l-28-39-150 298z" style="fill:url(#k);stroke:#616e7c;stroke-width:3px;stroke-miterlimit:10"/><path d="M600 0 450 59l28 39L592 7l8-6-1-1Z" style="fill:url(#l);stroke:#616e7c;stroke-width:3px;stroke-miterlimit:10"/><path d="m300 357-16 21-4 35L122 98l28-39 150 298z" style="fill:url(#m);stroke:#616e7c;stroke-width:3px;stroke-miterlimit:10"/><path d="m1 1 7 7 114 90 28-39L1 1Z" style="fill:url(#n);stroke:#616e7c;stroke-width:3px;stroke-miterlimit:10"/></svg>