<?xml version="1.0" encoding="UTF-8"?>
<svg id="Layer_1" xmlns="http://www.w3.org/2000/svg" version="1.1" viewBox="0 0 403 343">
  <!-- Generator: Adobe Illustrator 29.3.1, SVG Export Plug-In . SVG Version: 2.1.0 Build 151)  -->
  <defs>
    <style>
      .st0 {
        fill: #238223;
        stroke: #fff;
        stroke-miterlimit: 10;
        stroke-width: 3px;
      }
    </style>
  </defs>
  <path class="st0" d="M122.9,81.5h157.3c9,0,16.4,7.3,16.4,16.4h0c0,9-7.3,16.4-16.4,16.4H122.9c-9,0-16.4-7.3-16.4-16.4h0c0-9,7.3-16.4,16.4-16.4Z"/>
  <path class="st0" d="M122.9,228.8h157.3c9,0,16.4,7.3,16.4,16.4h0c0,9-7.3,16.4-16.4,16.4H122.9c-9,0-16.4-7.3-16.4-16.4h0c0-9,7.3-16.4,16.4-16.4Z"/>
  <path class="st0" d="M122.9,155.1h157.3c9,0,16.4,7.3,16.4,16.4h0c0,9-7.3,16.4-16.4,16.4H122.9c-9,0-16.4-7.3-16.4-16.4h0c0-9,7.3-16.4,16.4-16.4Z"/>
  <path class="st0" d="M1.5,171.5c0-16.8,4.8-33.7,14.6-49L58.2,56C79.4,22.4,120.5,1.5,165.4,1.5h72.3c44.9,0,85.9,20.9,107.2,54.5l42.1,66.5c19.4,30.7,19.4,67.3,0,98l-42.1,66.5c-21.2,33.6-62.3,54.5-107.2,54.5h-72.3c-44.9,0-85.9-20.9-107.2-54.5l-42.1-66.5c-9.7-15.4-14.6-32.2-14.6-49h0ZM347.8,140.4l-42.1-66.5c-13.5-21.3-39.6-34.6-68.1-34.6h-72.3c-28.5,0-54.6,13.2-68.1,34.6l-42.1,66.5c-12.3,19.5-12.3,42.8,0,62.2l42.1,66.5c13.5,21.3,39.6,34.6,68.1,34.6h72.3c28.5,0,54.6-13.2,68.1-34.6l42.1-66.5c12.3-19.5,12.3-42.8,0-62.2h0Z"/>
</svg>