<?xml version="1.0" encoding="UTF-8"?>
<svg id="MENU" xmlns="http://www.w3.org/2000/svg" version="1.1" xmlns:xlink="http://www.w3.org/1999/xlink" viewBox="0 0 344 304">
  <!-- Generator: Adobe Illustrator 29.3.1, SVG Export Plug-In . SVG Version: 2.1.0 Build 151)  -->
  <defs>
    <style>
      .st0 {
        fill: #d6d6d6;
      }

      .st0, .st1, .st2 {
        stroke-miterlimit: 10;
      }

      .st0, .st2 {
        stroke: #616e7c;
        stroke-width: 3px;
      }

      .st1 {
        fill: #888;
        stroke: #888;
        stroke-width: 6px;
      }

      .st2 {
        fill: url(#linear-gradient);
      }
    </style>
    <linearGradient id="linear-gradient" x1="172" y1="-920.01" x2="172" y2="-620" gradientTransform="translate(0 -618) scale(1 -1)" gradientUnits="userSpaceOnUse">
      <stop offset="0" stop-color="#606060"/>
      <stop offset=".5" stop-color="#ccc"/>
      <stop offset="1" stop-color="#606060"/>
    </linearGradient>
  </defs>
  <path class="st1" d="M252.79,217.03c0,3.97-1.55,7.59-4.07,10.21-2.52,2.63-6,4.26-9.87,4.26H105.16c-7.65,0-13.94-6.44-13.94-14.47,0-3.97,1.55-7.59,4.07-10.21,2.51-2.63,6-4.26,9.87-4.26h133.69c7.65,0,13.94,6.44,13.94,14.47Z"/>
  <path class="st1" d="M252.79,152c0,3.97-1.55,7.59-4.07,10.21-2.52,2.63-6,4.26-9.87,4.26H105.16c-7.65,0-13.94-6.44-13.94-14.47,0-3.97,1.55-7.59,4.07-10.21,2.51-2.63,6-4.26,9.87-4.26h133.69c7.65,0,13.94,6.44,13.94,14.47Z"/>
  <path class="st1" d="M252.79,87.06c0,3.97-1.55,7.59-4.07,10.21-2.52,2.63-6,4.26-9.87,4.26H105.16c-7.65,0-13.94-6.44-13.94-14.47,0-3.97,1.55-7.59,4.07-10.21,2.51-2.63,6-4.26,9.87-4.26h133.69c7.65,0,13.94,6.44,13.94,14.47Z"/>
  <path id="Hexa" class="st2" d="M329.64,108.77l-35.78-58.68C275.76,20.44,240.91,2,202.75,2h-61.45c-38.16,0-73.09,18.44-91.11,48.08L14.41,108.76c-8.33,13.5-12.41,28.42-12.41,43.24s4.17,29.65,12.41,43.24l35.78,58.68c18.1,29.65,52.95,48.09,91.11,48.09h61.45c38.16,0,73.09-18.44,91.11-48.09l35.78-58.68c16.49-27.09,16.49-59.38,0-86.47ZM296.32,179.44l-35.78,58.68c-11.48,18.88-33.66,30.53-57.88,30.53h-61.45c-24.22,0-46.41-11.74-57.88-30.53l-35.78-58.68c-10.45-17.12-10.45-37.67,0-54.88l35.78-58.68c11.48-18.88,33.66-30.53,57.88-30.53h61.45c24.22,0,46.41,11.74,57.88,30.53l35.78,58.68c10.45,17.12,10.45,37.67,0,54.88Z"/>
  <path class="st0" d="M296.32,124.56l-35.78-58.68c-11.47-18.79-33.66-30.53-57.88-30.53h-61.45c-24.22,0-46.4,11.65-57.88,30.53l-35.78,58.68c-10.45,17.21-10.45,37.76,0,54.88l35.78,58.68c11.47,18.79,33.66,30.53,57.88,30.53h61.45c24.22,0,46.4-11.65,57.88-30.53l35.78-58.68c10.45-17.21,10.45-37.76,0-54.88ZM248.72,227.24c-2.52,2.63-6,4.26-9.87,4.26H105.16c-7.65,0-13.94-6.44-13.94-14.47,0-3.97,1.55-7.59,4.07-10.21,2.51-2.63,6-4.26,9.87-4.26h133.69c7.65,0,13.94,6.44,13.94,14.47,0,3.97-1.55,7.59-4.07,10.21ZM248.72,162.21c-2.52,2.63-6,4.26-9.87,4.26H105.16c-7.65,0-13.94-6.44-13.94-14.47,0-3.97,1.55-7.59,4.07-10.21,2.51-2.63,6-4.26,9.87-4.26h133.69c7.65,0,13.94,6.44,13.94,14.47,0,3.97-1.55,7.59-4.07,10.21ZM248.72,97.27c-2.52,2.63-6,4.26-9.87,4.26H105.16c-7.65,0-13.94-6.44-13.94-14.47,0-3.97,1.55-7.59,4.07-10.21,2.51-2.63,6-4.26,9.87-4.26h133.69c7.65,0,13.94,6.44,13.94,14.47,0,3.97-1.55,7.59-4.07,10.21Z"/>
</svg>