<svg id="MENU" xmlns="http://www.w3.org/2000/svg" viewBox="0 0 344 304"><defs><linearGradient id="logo-a" x1="172" x2="172" y1="-920" y2="-620" gradientTransform="matrix(1 0 0 -1 0 -618)" gradientUnits="userSpaceOnUse"><stop offset="0" stop-color="#606060"/><stop offset=".5" stop-color="#ccc"/><stop offset="1" stop-color="#606060"/></linearGradient></defs><path d="M253 217c0 4-2 8-4 10-3 3-6 5-10 5H105c-7 0-14-7-14-15 0-4 2-8 4-10 3-3 6-4 10-4h134c7 0 14 6 14 14Zm0-65c0 4-2 8-4 10-3 3-6 4-10 4H105c-7 0-14-6-14-14 0-4 2-8 4-10 3-3 6-4 10-4h134c7 0 14 6 14 14Zm0-65c0 4-2 8-4 10-3 3-6 5-10 5H105c-7 0-14-7-14-15 0-4 2-8 4-10 3-3 6-4 10-4h134c7 0 14 6 14 14Z" style="stroke-miterlimit:10;fill:#888;stroke:#888;stroke-width:6px"/><path d="m330 109-36-59c-18-30-53-48-91-48h-62c-38 0-73 18-91 48l-36 59a82 82 0 0 0 0 86l36 59c18 30 53 48 91 48h62c38 0 73-18 91-48l36-59c16-27 16-59 0-86Zm-34 70-35 59a67 67 0 0 1-58 31h-62c-24 0-46-12-58-31l-35-59a52 52 0 0 1 0-54l35-59c12-19 34-31 58-31h62c24 0 46 12 58 31l35 59c11 17 11 37 0 54Z" style="fill:url(#logo-a);stroke:#353535;stroke-width:3px;stroke-miterlimit:10"/><path d="m296 125-35-59a67 67 0 0 0-58-31h-62c-24 0-46 12-58 31l-35 59a52 52 0 0 0 0 54l35 59c12 19 34 31 58 31h62c24 0 46-12 58-31l35-59c11-17 11-37 0-54Zm-47 102c-3 3-6 5-10 5H105c-7 0-14-7-14-15 0-4 2-8 4-10 3-3 6-4 10-4h134c7 0 14 6 14 14 0 4-2 8-4 10Zm0-65c-3 3-6 4-10 4H105c-7 0-14-6-14-14 0-4 2-8 4-10 3-3 6-4 10-4h134c7 0 14 6 14 14 0 4-2 8-4 10Zm0-65c-3 3-6 5-10 5H105c-7 0-14-7-14-15 0-4 2-8 4-10 3-3 6-4 10-4h134c7 0 14 6 14 14 0 4-2 8-4 10Z" style="stroke:#353535;stroke-width:3px;stroke-miterlimit:10;fill:#c3c3c3"/></svg>