<?xml version="1.0" encoding="UTF-8"?>
<svg id="MENU" xmlns="http://www.w3.org/2000/svg" version="1.1" xmlns:xlink="http://www.w3.org/1999/xlink" viewBox="0 0 344 304">
  <!-- Generator: Adobe Illustrator 29.3.1, SVG Export Plug-In . SVG Version: 2.1.0 Build 151)  -->
  <defs>
    <style>
      .st0 {
        fill: url(#radial-gradient);
      }

      .st0, .st1, .st2, .st3 {
        stroke: #616e7c;
        stroke-miterlimit: 10;
        stroke-width: 4px;
      }

      .st1 {
        fill: #616e7c;
      }

      .st2 {
        fill: url(#linear-gradient);
      }

      .st3 {
        fill: url(#linear-gradient1);
      }
    </style>
    <linearGradient id="linear-gradient" x1="-2742.85" y1="2341.08" x2="-2770.67" y2="2341.08" gradientTransform="translate(-2075.43 -2650) rotate(-90) scale(1.04 .96)" gradientUnits="userSpaceOnUse">
      <stop offset="0" stop-color="#616e7c"/>
      <stop offset=".23" stop-color="#64707e"/>
      <stop offset=".42" stop-color="#6e7887"/>
      <stop offset=".59" stop-color="#7f8596"/>
      <stop offset=".76" stop-color="#9698ab"/>
      <stop offset=".91" stop-color="#b5b0c5"/>
      <stop offset="1" stop-color="#cbc2d9"/>
    </linearGradient>
    <linearGradient id="linear-gradient1" x1="-2770.67" y1="2215.47" x2="-2742.85" y2="2215.47" gradientTransform="translate(-1954.85 -2779.97) rotate(-90) scale(1.04 .96)" gradientUnits="userSpaceOnUse">
      <stop offset="0" stop-color="#616e7c"/>
      <stop offset=".23" stop-color="#64707e"/>
      <stop offset=".42" stop-color="#6e7887"/>
      <stop offset=".59" stop-color="#7f8596"/>
      <stop offset=".76" stop-color="#9698ab"/>
      <stop offset=".91" stop-color="#b5b0c5"/>
      <stop offset="1" stop-color="#cbc2d9"/>
    </linearGradient>
    <radialGradient id="radial-gradient" cx="172" cy="1076.01" fx="172" fy="1076.01" r="160.32" gradientTransform="translate(0 -924)" gradientUnits="userSpaceOnUse">
      <stop offset="0" stop-color="#cbc2d9"/>
      <stop offset=".16" stop-color="#c2bad1"/>
      <stop offset=".43" stop-color="#a9a7bb"/>
      <stop offset=".76" stop-color="#828899"/>
      <stop offset="1" stop-color="#616e7c"/>
    </radialGradient>
  </defs>
  <path id="Bot" class="st2" d="M105.16,202.56h133.69c7.65,0,13.94,6.44,13.94,14.47h0c0,7.94-6.2,14.47-13.94,14.47H105.16c-7.65,0-13.94-6.44-13.94-14.47h0c0-7.94,6.2-14.47,13.94-14.47h0Z"/>
  <path id="Mid" class="st1" d="M105.16,137.53h133.69c7.65,0,13.94,6.44,13.94,14.47h0c0,7.94-6.2,14.47-13.94,14.47H105.16c-7.65,0-13.94-6.44-13.94-14.47h0c0-7.94,6.2-14.47,13.94-14.47Z"/>
  <path id="Top" class="st3" d="M105.16,72.59h133.69c7.65,0,13.94,6.44,13.94,14.47h0c0,7.94-6.2,14.47-13.94,14.47H105.16c-7.65,0-13.94-6.44-13.94-14.47h0c0-7.94,6.2-14.47,13.94-14.47Z"/>
  <path id="Hexa" class="st0" d="M2,152c0-14.82,4.08-29.74,12.41-43.24l35.78-58.68C68.21,20.44,103.14,2,141.3,2h61.45c38.16,0,73.01,18.44,91.11,48.09l35.78,58.68c16.49,27.09,16.49,59.38,0,86.47l-35.78,58.68c-18.02,29.65-52.95,48.09-91.11,48.09h-61.45c-38.16,0-73.01-18.44-91.11-48.09l-35.78-58.68c-8.24-13.59-12.41-28.41-12.41-43.24h0ZM296.32,124.56l-35.78-58.68c-11.47-18.79-33.66-30.53-57.88-30.53h-61.45c-24.22,0-46.4,11.65-57.88,30.53l-35.78,58.68c-10.45,17.21-10.45,37.76,0,54.88l35.78,58.68c11.47,18.79,33.66,30.53,57.88,30.53h61.45c24.22,0,46.4-11.65,57.88-30.53l35.78-58.68c10.45-17.21,10.45-37.76,0-54.88h0Z"/>
</svg>