<?xml version="1.0" encoding="UTF-8"?>
<svg id="MENU" xmlns="http://www.w3.org/2000/svg" version="1.1" xmlns:xlink="http://www.w3.org/1999/xlink" viewBox="0 0 344 304">
    <defs>
    <style>
      .st0 {
        fill: url(#linear-gradient-dropdown-menu3);
      }

      .st0, .st1, .st2, .st3 {
        stroke: gray;
        stroke-miterlimit: 10;
        stroke-width: 4px;
      }

      .st1 {
        fill: url(#linear-gradient-dropdown-menu);
      }

      .st2 {
        fill: url(#linear-gradient-dropdown-menu1);
      }

      .st3 {
        fill: url(#linear-gradient-dropdown-menu2);
      }
    </style>
    <linearGradient id="linear-gradient-dropdown-menu" x1="-2010.73" y1="-1147.22" x2="-2038.56" y2="-1147.22" gradientTransform="translate(-929.33 -2018.57) rotate(-90) scale(1.04 -.96)" gradientUnits="userSpaceOnUse">
      <stop offset="0" stop-color="#444"/>
      <stop offset="1" stop-color="#bcbcbc"/>
    </linearGradient>
    <linearGradient id="linear-gradient-dropdown-menu1" x1="-2038.56" y1="-1272.83" x2="-2010.73" y2="-1272.83" gradientTransform="translate(-1049.91 -1888.6) rotate(-90) scale(1.04 -.96)" gradientUnits="userSpaceOnUse">
      <stop offset="0" stop-color="#444"/>
      <stop offset="1" stop-color="#bcbcbc"/>
    </linearGradient>
    <linearGradient id="linear-gradient-dropdown-menu2" x1="-2024.64" y1="-1125.83" x2="-2024.64" y2="-1294.14" gradientTransform="translate(-989.58 -1953.63) rotate(-90) scale(1.04 -.96)" gradientUnits="userSpaceOnUse">
      <stop offset="0" stop-color="#444"/>
      <stop offset=".11" stop-color="#6d6d6d"/>
      <stop offset=".22" stop-color="#8f8f8f"/>
      <stop offset=".33" stop-color="#a7a7a7"/>
      <stop offset=".43" stop-color="#b6b6b6"/>
      <stop offset=".51" stop-color="#bcbcbc"/>
      <stop offset=".59" stop-color="#b6b6b6"/>
      <stop offset=".68" stop-color="#a7a7a7"/>
      <stop offset=".78" stop-color="#8f8f8f"/>
      <stop offset=".89" stop-color="#6d6d6d"/>
      <stop offset="1" stop-color="#444"/>
    </linearGradient>
    <linearGradient id="linear-gradient-dropdown-menu3" x1="172" y1="-458.01" x2="172" y2="-158" gradientTransform="translate(0 -156) scale(1 -1)" gradientUnits="userSpaceOnUse">
      <stop offset="0" stop-color="#bcbcbc"/>
      <stop offset=".15" stop-color="#8c8c8c"/>
      <stop offset=".31" stop-color="#656565"/>
      <stop offset=".43" stop-color="#4c4c4c"/>
      <stop offset=".5" stop-color="#444"/>
      <stop offset=".57" stop-color="#4c4c4c"/>
      <stop offset=".69" stop-color="#656565"/>
      <stop offset=".85" stop-color="#8c8c8c"/>
      <stop offset="1" stop-color="#bcbcbc"/>
    </linearGradient>
  </defs>
  <path class="st1" d="M105.16,72.59h133.69c7.65,0,13.94,6.44,13.94,14.47h0c0,7.94-6.2,14.47-13.94,14.47H105.16c-7.65,0-13.94-6.44-13.94-14.47h0c0-7.94,6.2-14.47,13.94-14.47Z"/>
  <path class="st2" d="M105.16,202.56h133.69c7.65,0,13.94,6.44,13.94,14.47h0c0,7.94-6.2,14.47-13.94,14.47H105.16c-7.65,0-13.94-6.44-13.94-14.47h0c0-7.94,6.2-14.47,13.94-14.47h0Z"/>
  <path class="st3" d="M105.16,137.53h133.69c7.65,0,13.94,6.44,13.94,14.47h0c0,7.94-6.2,14.47-13.94,14.47H105.16c-7.65,0-13.94-6.44-13.94-14.47h0c0-7.94,6.2-14.47,13.94-14.47Z"/>
  <path class="st0" d="M2,152c0-14.82,4.08-29.74,12.41-43.24l35.78-58.68C68.21,20.44,103.14,2,141.3,2h61.45c38.16,0,73.01,18.44,91.11,48.09l35.78,58.68c16.49,27.09,16.49,59.38,0,86.47l-35.78,58.68c-18.02,29.65-52.95,48.09-91.11,48.09h-61.45c-38.16,0-73.01-18.44-91.11-48.09l-35.78-58.68c-8.24-13.59-12.41-28.41-12.41-43.24h0ZM296.32,124.56l-35.78-58.68c-11.47-18.79-33.66-30.53-57.88-30.53h-61.45c-24.22,0-46.4,11.65-57.88,30.53l-35.78,58.68c-10.45,17.21-10.45,37.76,0,54.88l35.78,58.68c11.47,18.79,33.66,30.53,57.88,30.53h61.45c24.22,0,46.4-11.65,57.88-30.53l35.78-58.68c10.45-17.21,10.45-37.76,0-54.88h0Z"/>
</svg>