<svg id="mosquito" xmlns="http://www.w3.org/2000/svg" viewBox="0 0 800 800"><path d="M800 400a400 400 0 1 1-800 0 400 400 0 0 1 800 0ZM574 645a300 300 0 0 1-418-418l418 418Zm71-71L226 155a300 300 0 0 1 418 418Z" style="fill:#646464;fill-rule:evenodd"/><path d="m674 128-3 1-5 27-18 71-12 44-19 22-18 21-12 9-13 9-22 10-23 10-17-11-16-11-16-37c-15-37-15-38-18-42l-4-4-4 2c-5 3-8 10-15 32l-1 2-18-14-22-15-4-2-2 1-2 3-2 31-1 23-4-2-17-3-12-2-7 2c-7 2-7 3-15 8-9 7-9 6-18 20l-5 7-11-12-13-13-5-2c-2 1-3 4-3 9l-1 5-4-5c-4-4-5-4-7-4-3 0-5 2-5 6l-1 19a307 307 0 0 1-4 62l-6-5c-5-4-8-7-14-15s-8-10-12-18l-4-12c-1-4-1-4-2-1 0 3 5 17 11 27l5 9 11 9 10 9v4l1 3-19-15-19-15-6-11-7-13v4c1 5 2 7 7 14 5 8 6 8 14 16l19 16 10 9v6l-1 16a610 610 0 0 1-9 54l-4 8-4 4c-3 5-14 13-39 29a360 360 0 0 1-82 42l-15 5-15-1H69l-2 2 1 3a457 457 0 0 1 18 4h13l11-3 12-3 24-12 24-12 34-23 33-24 7-8 7-8-2 5-3 6-32 28-32 27-39 26-39 25-15 4-16 5v1l1 2 8-2 17-3 10-3 30-17 30-18 42-36a259 259 0 0 1 46-38 4362 4362 0 0 0 14-78l19 12 1 3c0 2 1 3 3 4l6 2c2 0 2 1 2 2v4c-1 4-1 5 1 8l1 4h7l3 1-6 7-10 15-4 7 1 6 2 6 2-4 3-4 1 3c2 2 2 3 3 2l1-1 2-10a44 44 0 0 1 5-18l-1 16a3953 3953 0 0 0-3 101l2 1 26-40 26-42 2-3-1-5c-1-4-1-6-4-11-3-6-4-6-12-13a266 266 0 0 0-22-17l-3-3 2-10 5-15 2-6-2-7-2-8 2-2 3-2 14 18 14 18h3l5-2c3-2 3-3 5-6l1-3 5 7 5 7-12 56-12 55-5 9c-5 8-5 8-19 23l-14 15-4 1-9 4-5 3 1 2c0 5-1 5 10 3l11-3c19-21 20-22 29-36l9-14 9-34 9-33 6 30 5 29 2 3 3 3 2-1 1-2-2-5-4-6-2-16-4-30-3-15 6-22 7-27 1-5h3l6-2 4-2 2-8 2-7 21 33 20 31 15 16 16 16 33 16 32 16 8-2 8-2 4-4c4-4 7-11 5-12l-6-5-14-18-30-40-20-27-25-28-25-28-15-13-16-14a4742 4742 0 0 1 41 11l38 13 14 35 14 34 41 35 54 45 12 11 30 14 30 14 11 2 11 2 4-2 3-1-1-3c0-4 0-4-7-5l-14-2-9-1-24-12-35-18-10-6-29-27-42-39-12-12-13-24-18-36 39 13 50 16v-5l-1-4-20-10q-21-10-75-30c-2-1-2-2-5-9l-4-9a350 350 0 0 0 24 19l39-22 38-21 19-23 19-22 14-39 13-39 7-28 7-28-2-9c-2-9-2-8-7-8ZM472 293l12 29-35-29a164 164 0 0 1 10-30l13 30Zm-53-16 16 13-17 42-12-3 1-10c1-9 2-10 1-12l-3-3h-4l-2 1v-18l2-21 2-1 16 12Zm50 42 22 18 4 12 5 12-65-23a393 393 0 0 1 11-38l23 19Zm-176 22c9 10 10 11 9 13v2a164 164 0 0 1-18-23v-3l9 11Zm-22-2 5 7-1 8-9 59h-2l-2-2c-1-1-1 1 1-26a992 992 0 0 0 3-50l5 4Zm19 20 8 11 1 5 4 12 6 11 2 3c1 1-1 2-6 6l-7 5-2 5-3 12v7l-10-8-11-9 10-70 8 10Zm-26 60 2 4v2l-3-3-3-4c0-1 1-1 4 1Zm19 13 9 8v2a591 591 0 0 1-21-17l2-1 10 8Zm-20-4 2 2-1 6a2445 2445 0 0 1-11 54l7-65 3 3Zm62 46 5 3 27 27c3 4 3 4 1 8 0 2-46 76-47 76l1-7 2-35 4-49 1-22c0-3 1-3 6-1Z" style="fill:#424242"/><path d="m674 116-3 1-5 27-18 71-12 44-19 22-18 21-12 9-13 9-22 10-23 10-17-11-16-11-16-37c-15-37-15-38-18-42l-4-4-4 2c-5 3-8 10-15 32l-1 2-18-14-22-15-4-2-2 1-2 3-2 31-1 23-4-2-17-3-12-2-7 2c-7 2-7 3-15 8-9 7-9 6-18 20l-5 7-11-12-13-13-5-2c-2 1-3 4-3 9l-1 5-4-5c-4-4-5-4-7-4-3 0-5 2-5 6l-1 19a307 307 0 0 1-4 62l-6-5c-5-4-8-7-14-15s-8-10-12-18l-4-12c-1-4-1-4-2-1 0 3 5 17 11 27l5 9 11 9 10 9v4l1 3-19-15-19-15-6-11-7-13v4c1 5 2 7 7 14 5 8 6 8 14 16l19 16 10 9v6l-1 16a610 610 0 0 1-9 54l-4 8-4 4c-3 5-14 13-39 29a360 360 0 0 1-82 42l-15 5-15-1H69l-2 2 1 3a457 457 0 0 1 18 4h13l11-3 12-3 24-12 24-12 34-23 33-24 7-8 7-8-2 5-3 6-32 28-32 27-39 26-39 25-15 4-16 5v1l1 2 8-2 17-3 10-3 30-17 30-18 42-36a259 259 0 0 1 46-38 4362 4362 0 0 0 14-78l19 12 1 3c0 2 1 3 3 4l6 2c2 0 2 1 2 2v4c-1 4-1 5 1 8l1 4h7l3 1-6 7-10 15-4 7 1 6 2 6 2-4 3-4 1 3c2 2 2 3 3 2l1-1 2-10a44 44 0 0 1 5-18l-1 16a3953 3953 0 0 0-3 101l2 1 26-40 26-42 2-3-1-5c-1-4-1-6-4-11-3-6-4-6-12-13a266 266 0 0 0-22-17l-3-3 2-10 5-15 2-6-2-7-2-8 2-2 3-2 14 18 14 18h3l5-2c3-2 3-3 5-6l1-3 5 7 5 7-12 56-12 55-5 9c-5 8-5 8-19 23l-14 15-4 1-9 4-5 3 1 2c0 5-1 5 10 3l11-3c19-21 20-22 29-36l9-14 9-34 9-33 6 30 5 29 2 3 3 3 2-1 1-2-2-5-4-6-2-16-4-30-3-15 6-22 7-27 1-5h3l6-2 4-2 2-8 2-7 21 33 20 31 15 16 16 16 33 16 32 16 8-2 8-2 4-4c4-4 7-11 5-12l-6-5-14-18-30-40-20-27-25-28-25-28-15-13-16-14a4742 4742 0 0 1 41 11l38 13 14 35 14 34 41 35 54 45 12 11 30 14 30 14 11 2 11 2 4-2 3-1-1-3c0-4 0-4-7-5l-14-2-9-1-24-12-35-18-10-6-29-27-42-39-12-12-13-24-18-36 39 13 50 16v-5l-1-4-20-10q-21-10-75-30c-2-1-2-2-5-9l-4-9a350 350 0 0 0 24 19l39-22 38-21 19-23 19-22 14-39 13-39 7-28 7-28-2-9c-2-9-2-8-7-8ZM472 281l12 29-35-29a164 164 0 0 1 10-30l13 30Zm-53-16 16 13-17 42-12-3 1-10c1-9 2-10 1-12l-3-3h-4l-2 1v-18l2-21 2-1 16 12Zm50 42 22 18 4 12 5 12-65-23a393 393 0 0 1 11-38l23 19Zm-176 22c9 10 10 11 9 13v2a164 164 0 0 1-18-23v-3l9 11Zm-22-2 5 7-1 8-9 59h-2l-2-2c-1-1-1 1 1-26a992 992 0 0 0 3-50l5 4Zm19 20 8 11 1 5 4 12 6 11 2 3c1 1-1 2-6 6l-7 5-2 5-3 12v7l-10-8-11-9 10-70 8 10Zm-26 60 2 4v2l-3-3-3-4c0-1 1-1 4 1Zm19 13 9 8v2a591 591 0 0 1-21-17l2-1 10 8Zm-20-4 2 2-1 6a2445 2445 0 0 1-11 54l7-65 3 3Zm62 46 5 3 27 27c3 4 3 4 1 8 0 2-46 76-47 76l1-7 2-35 4-49 1-22c0-3 1-3 6-1Z" style="fill:#c8c8c8;stroke:#424242;stroke-miterlimit:10;stroke-width:2px"/></svg>