<?xml version="1.0" encoding="UTF-8"?>
<svg id="Layer_1" xmlns="http://www.w3.org/2000/svg" baseProfile="tiny" version="1.2" xmlns:xlink="http://www.w3.org/1999/xlink" viewBox="0 0 600 600">
  <!-- Generator: Adobe Illustrator 29.3.1, SVG Export Plug-In . SVG Version: 2.1.0 Build 151)  -->
  <g>
    <image width="589" height="561" transform="translate(5.3 19.7)" xlink:href="logo-1.png"/>
    <path d="M300,586c-9.2,0-18.3-2-26.8-6l-24.5-11.4h0l-165.2-77.1c-18.3-8.5-31.4-24.9-36.2-44.9L1.8,253.2c-4.8-20.5.2-42.4,13.5-58.5L144.5,37.6c12.3-15,30.4-23.6,49.5-23.6h211.9c19.1,0,37.2,8.6,49.5,23.6l129.2,157.1c13.3,16.1,18.3,38,13.5,58.5l-45.5,193.4c-4.7,20-17.9,36.4-36.2,44.9l-189.7,88.6c-8.5,4-17.7,6-26.8,6ZM279.1,569.5c13.6,6.1,29.1,5.9,42.7-.4l189.7-88.6c14.9-7,25.7-20.4,29.5-36.8l45.5-193.4c4-16.9-.2-34.9-11.1-48.1L446.2,45.2c-10-12.2-24.7-19.2-40.3-19.2h-211.9c-15.5,0-30.2,7-40.3,19.2L24.5,202.3c-10.9,13.2-15,31.2-11.1,48.1l45.5,193.4c3.9,16.4,14.6,29.8,29.5,36.8l190.5,88.9Z" fill="#3c3c3c"/>
  </g>
  <g>
    <image width="169" height="60" transform="translate(.3 -.3)" xlink:href="logo-2.png"/>
    <path d="M150.2,60.6L-1.3,1.3-.1-.3c0,0,0-.1.1-.2l.7-1,1,.2,158.3,36.7h.2l10.9,5.8-20.9,19.4ZM17.8,5.5l131.7,51.6,16.4-15.2-6.7-3.5L17.8,5.5Z" fill="#3c3c3c"/>
  </g>
  <g>
    <image width="151" height="317" transform="translate(149.3 40.7)" xlink:href="logo-3.png"/>
    <path d="M301.4,363.3L148.1,58.5l20.3-18.8,10.1,5.3,123,241.3v77ZM151.8,59.2l146.7,291.5v-63.7S176.2,47.2,176.2,47.2l-7.4-3.9-17.1,15.8Z" fill="#3c3c3c"/>
  </g>
  <g>
    <image width="301" height="600" transform="translate(-.7 .7)" xlink:href="logo-4.png"/>
    <path d="M299.8,601.4h-1.5v-.3s-.3-.5-.3-.5L-1.6,3.4l.2-.6c.2-.6.3-1.1.3-1.6v-.5c0,0,.4-.4.4-.4,0,0,.2-.1.2-.1L.4-.6,1.4.1l8.1,6.4v.3c.1,0,264.2,486.8,264.2,486.8l27.6,50.9v55.3s-1.4,0-1.4,0v1.5ZM2.5,4.9l295.8,589.5v-49s-27.2-50.2-27.2-50.2L7.1,8.5l-4.6-3.7Z" fill="#3c3c3c"/>
  </g>
  <g>
    <image width="28" height="189" transform="translate(272.3 356.7)" xlink:href="logo-5.png"/>
    <path d="M301.3,550.9l-30.5-56.2,11.2-117,19.4-25.1v198.2ZM273.9,494.1l24.4,45v-177.6c.1,0-13.3,17.5-13.3,17.5l-11.1,115.2Z" fill="#3c3c3c"/>
  </g>
  <g>
    <image width="150" height="99" transform="translate(.3 -.3)" xlink:href="logo-6.png"/>
    <path d="M122,100.5l-1.2-1.2L-1.8,1.4-.6.2C-.4,0-.3-.1-.1-.3l.7-.9,151.7,59.4-30.3,42.4ZM6.8,4.4l2.4,1.9,112.2,89.7,26.1-36.5L6.8,4.4Z" fill="#3c3c3c"/>
  </g>
  <g>
    <image width="273" height="488" transform="translate(7.3 6.7)" xlink:href="logo-7.png"/>
    <path d="M273.4,499.4l-2.3-4.3L3.4,1.8l119.5,95.5v.2c.1,0,158.7,315.3,158.7,315.3l-8.3,86.6ZM13.1,13.4l258.2,476,7.3-76L120.6,99.2,13.1,13.4Z" fill="#3c3c3c"/>
  </g>
  <g>
    <image width="179" height="355" transform="translate(121.3 58.7)" xlink:href="logo-8.png"/>
    <path d="M281.2,418.4L120,98.1l30.1-42.1,151.3,300.7v.9l-16.5,21.3-3.8,39.5ZM123.5,98.3l155.6,309.4,2.9-30.1,16.1-20.9L149.7,61.7l-26.2,36.6Z" fill="#3c3c3c"/>
  </g>
  <g>
    <image width="170" height="59" transform="translate(430.3 -.3)" xlink:href="logo-9.png"/>
    <path d="M449.6,60.4l-20.9-19.4,11-5.7L598.3-1.5h.4c.3,0,.5,0,.8.1h.6s.8.9.8.9v1.7s-151.3,59.2-151.3,59.2ZM433.9,41.7l16.4,15.2L582,5.3l-141.5,32.8-6.7,3.5Z" fill="#3c3c3c"/>
  </g>
  <g>
    <image width="151" height="317" transform="translate(299.3 40.7)" xlink:href="logo-10.png"/>
    <path d="M298.5,363.1v-77s.1-.3.1-.3l122.8-241,10.1-5.3,20.3,18.8-.5,1-152.8,303.8ZM301.4,286.8v63.7S448.1,59,448.1,59l-17.1-15.8-7.4,3.9-122.2,239.8Z" fill="#3c3c3c"/>
  </g>
  <g>
    <image width="301" height="600" transform="translate(299.3 .7)" xlink:href="logo-11.png"/>
    <path d="M301.2,601.7l-1.1-.3c0,0-.2,0-.3,0l-1.1-.3v-56.7s27.6-50.9,27.6-50.9L590.4,6.4l9.9-7.9.8,1.8c0,0,0,.1.1.2,0,0,0,.2.1.3l.2.5v.5c-.2.5-.3,1.1-.4,1.7v.3s-.2.3-.2.3l-299.9,597.7ZM301.6,545.2v49S597.4,4.7,597.4,4.7l-4.6,3.7-263.9,486.6-27.2,50.2Z" fill="#3c3c3c"/>
  </g>
  <g>
    <image width="29" height="189" transform="translate(299.3 356.7)" xlink:href="logo-12.png"/>
    <path d="M298.6,550.7v-198.2c-.1,0,19.2,25.1,19.2,25.1l11.2,117-.2.4-30.2,55.7ZM301.5,361.2v177.6c.1,0,24.5-45,24.5-45l-11.1-115.2-13.5-17.4Z" fill="#3c3c3c"/>
  </g>
  <g>
    <image width="151" height="99" transform="translate(449.3 -.3)" xlink:href="logo-13.png"/>
    <path d="M478,100.3l-1.1-1.4-29.3-40.9L600.4-1.8l.5,1.5c0,.2.2.4.2.6l.4,1-122.4,97.8-1.2,1.2ZM452.3,59.3l26.1,36.5L593.1,4.2l-140.8,55.1Z" fill="#3c3c3c"/>
  </g>
  <g>
    <image width="273" height="488" transform="translate(319.3 6.7)" xlink:href="logo-14.png"/>
    <path d="M326.5,499.2l-8.3-86.6.2-.4L476.9,97.1l.3-.3L596.4,1.6l-270,497.7ZM321.2,413.2l7.3,76L586.7,13.2l-107.4,85.8-158.1,314.2Z" fill="#3c3c3c"/>
  </g>
  <g>
    <image width="179" height="356" transform="translate(299.3 57.7)" xlink:href="logo-15.png"/>
    <path d="M318.7,418.2l-3.8-39.5-16.5-21.3v-.9l.2-.4L449.7,55.8l30.1,42.1-161.1,320.3ZM301.7,356.6l16.1,20.9,2.9,30.1L476.4,98.2l-26.2-36.6-148.5,295.1Z" fill="#3c3c3c"/>
  </g>
</svg>