<svg id="LOGO" xmlns="http://www.w3.org/2000/svg" version="1.1" xmlns:xlink="http://www.w3.org/1999/xlink" viewBox="0 0 600 600">
  <defs>
    <style>
      .st0 {
        fill: #646464;
        stroke: #a3a3a3;
        stroke-width: 9px;
      }

      .st0, .st1, .st2, .st3, .st4, .st5, .st6, .st7, .st8, .st9, .st10, .st11, .st12, .st13, .st14 {
        stroke-miterlimit: 10;
      }

      .st1 {
        fill: url(#linear-gradient5);
      }

      .st1, .st2, .st3, .st4, .st5, .st6, .st7, .st8, .st9, .st10, .st11, .st12, .st13, .st14 {
        stroke: #616e7c;
        stroke-width: 3px;
      }

      .st2 {
        fill: url(#linear-gradient2);
      }

      .st3 {
        fill: url(#linear-gradient7);
      }

      .st4 {
        fill: url(#linear-gradient8);
      }

      .st5 {
        fill: url(#linear-gradient3);
      }

      .st6 {
        fill: url(#linear-gradient4);
      }

      .st7 {
        fill: url(#linear-gradient11);
      }

      .st8 {
        fill: url(#linear-gradient6);
      }

      .st9 {
        fill: url(#linear-gradient12);
      }

      .st10 {
        fill: url(#linear-gradient1);
      }

      .st11 {
        fill: url(#linear-gradient9);
      }

      .st12 {
        fill: url(#linear-gradient13);
      }

      .st13 {
        fill: url(#linear-gradient);
      }

      .st14 {
        fill: url(#linear-gradient10);
      }
    </style>
    <linearGradient id="linear-gradient" x1="467.5" y1="-316.9" x2="429.2" y2="-294.8" gradientTransform="translate(0 -6.2) scale(1 -1)" gradientUnits="userSpaceOnUse">
      <stop offset="0" stop-color="#c4c4c4"/>
      <stop offset=".2" stop-color="#bbb"/>
      <stop offset=".6" stop-color="#a2a2a2"/>
      <stop offset="1" stop-color="gray"/>
    </linearGradient>
    <linearGradient id="linear-gradient1" x1="344.8" y1="-193.2" x2="387.6" y2="-217.9" gradientTransform="translate(0 -6.2) scale(1 -1)" gradientUnits="userSpaceOnUse">
      <stop offset="0" stop-color="#c4c4c4"/>
      <stop offset=".2" stop-color="#bbb"/>
      <stop offset=".6" stop-color="#a2a2a2"/>
      <stop offset="1" stop-color="gray"/>
    </linearGradient>
    <linearGradient id="linear-gradient2" x1="503.3" y1="-5.9" x2="527.5" y2="-47.9" gradientTransform="translate(0 -6.2) scale(1 -1)" gradientUnits="userSpaceOnUse">
      <stop offset="0" stop-color="#c4c4c4"/>
      <stop offset=".2" stop-color="#bbb"/>
      <stop offset=".6" stop-color="#a2a2a2"/>
      <stop offset="1" stop-color="gray"/>
    </linearGradient>
    <linearGradient id="linear-gradient3" x1="132.6" y1="-316.9" x2="170.6" y2="-295" gradientTransform="translate(0 -6.2) scale(1 -1)" gradientUnits="userSpaceOnUse">
      <stop offset="0" stop-color="#c4c4c4"/>
      <stop offset=".2" stop-color="#bbb"/>
      <stop offset=".6" stop-color="#a2a2a2"/>
      <stop offset="1" stop-color="gray"/>
    </linearGradient>
    <linearGradient id="linear-gradient4" x1="257.9" y1="-191.8" x2="215.2" y2="-216.5" gradientTransform="translate(0 -6.2) scale(1 -1)" gradientUnits="userSpaceOnUse">
      <stop offset="0" stop-color="#c4c4c4"/>
      <stop offset=".2" stop-color="#bbb"/>
      <stop offset=".6" stop-color="#a2a2a2"/>
      <stop offset="1" stop-color="gray"/>
    </linearGradient>
    <linearGradient id="linear-gradient5" x1="96.9" y1="-6.3" x2="72.8" y2="-48.2" gradientTransform="translate(0 -6.2) scale(1 -1)" gradientUnits="userSpaceOnUse">
      <stop offset="0" stop-color="#c4c4c4"/>
      <stop offset=".2" stop-color="#bbb"/>
      <stop offset=".6" stop-color="#a2a2a2"/>
      <stop offset="1" stop-color="gray"/>
    </linearGradient>
    <linearGradient id="linear-gradient6" x1="407.3" y1="-226.8" x2="465.9" y2="-260.7" gradientTransform="translate(0 -6.2) scale(1 -1)" gradientUnits="userSpaceOnUse">
      <stop offset="0" stop-color="#505050"/>
      <stop offset=".2" stop-color="#585858"/>
      <stop offset=".6" stop-color="#717171"/>
      <stop offset="1" stop-color="#909090"/>
    </linearGradient>
    <linearGradient id="linear-gradient7" x1="192.6" y1="-227" x2="134" y2="-260.9" gradientTransform="translate(0 -6.2) scale(1 -1)" gradientUnits="userSpaceOnUse">
      <stop offset="0" stop-color="#505050"/>
      <stop offset=".2" stop-color="#585858"/>
      <stop offset=".6" stop-color="#717171"/>
      <stop offset="1" stop-color="#909090"/>
    </linearGradient>
    <linearGradient id="linear-gradient8" x1="300" y1="-457" x2="327.5" y2="-457" gradientTransform="translate(0 -6.2) scale(1 -1)" gradientUnits="userSpaceOnUse">
      <stop offset="0" stop-color="#505050"/>
      <stop offset=".2" stop-color="#585858"/>
      <stop offset=".6" stop-color="#717171"/>
      <stop offset="1" stop-color="#909090"/>
    </linearGradient>
    <linearGradient id="linear-gradient9" x1="299.9" y1="-457.2" x2="272.4" y2="-457.2" gradientTransform="translate(0 -6.2) scale(1 -1)" gradientUnits="userSpaceOnUse">
      <stop offset="0" stop-color="#505050"/>
      <stop offset=".2" stop-color="#585858"/>
      <stop offset=".6" stop-color="#717171"/>
      <stop offset="1" stop-color="#909090"/>
    </linearGradient>
    <linearGradient id="linear-gradient10" x1="357" y1="-225.9" x2="412.7" y2="-258.1" gradientTransform="translate(0 -6.2) scale(1 -1)" gradientUnits="userSpaceOnUse">
      <stop offset="0" stop-color="#b4b4b4"/>
      <stop offset=".2" stop-color="#979797"/>
      <stop offset=".5" stop-color="#7c7c7c"/>
      <stop offset=".8" stop-color="#6b6b6b"/>
      <stop offset="1" stop-color="#666"/>
    </linearGradient>
    <linearGradient id="linear-gradient11" x1="518.7" y1="-25.1" x2="542.8" y2="-66.9" gradientTransform="translate(0 -6.2) scale(1 -1)" gradientUnits="userSpaceOnUse">
      <stop offset="0" stop-color="#b4b4b4"/>
      <stop offset=".2" stop-color="#979797"/>
      <stop offset=".5" stop-color="#7c7c7c"/>
      <stop offset=".8" stop-color="#6b6b6b"/>
      <stop offset="1" stop-color="#666"/>
    </linearGradient>
    <linearGradient id="linear-gradient12" x1="242.9" y1="-226.1" x2="187.2" y2="-258.2" gradientTransform="translate(0 -6.2) scale(1 -1)" gradientUnits="userSpaceOnUse">
      <stop offset="0" stop-color="#b4b4b4"/>
      <stop offset=".2" stop-color="#979797"/>
      <stop offset=".5" stop-color="#7c7c7c"/>
      <stop offset=".8" stop-color="#6b6b6b"/>
      <stop offset="1" stop-color="#666"/>
    </linearGradient>
    <linearGradient id="linear-gradient13" x1="81.5" y1="-25.4" x2="57.4" y2="-67.1" gradientTransform="translate(0 -6.2) scale(1 -1)" gradientUnits="userSpaceOnUse">
      <stop offset="0" stop-color="#b4b4b4"/>
      <stop offset=".2" stop-color="#979797"/>
      <stop offset=".5" stop-color="#7c7c7c"/>
      <stop offset=".8" stop-color="#6b6b6b"/>
      <stop offset="1" stop-color="#666"/>
    </linearGradient>
  </defs>
  <path id="Hepta" class="st0" d="M275.7,562.6l-189.7-88.6c-16.5-7.7-28.6-22.8-32.9-40.8L7.7,239.8c-4.4-18.8,0-38.6,12.3-53.3L149.1,29.4c11.2-13.6,27.6-21.4,44.9-21.4h211.9c17.3,0,33.7,7.8,44.9,21.4l129.2,157.1c12.1,14.7,16.7,34.5,12.3,53.3l-45.5,193.4c-4.3,18.1-16.4,33.1-32.9,40.8l-189.7,88.6c-15.4,7.2-33.2,7.2-48.6,0h.1Z"/>
  <g id="OutterPart">
    <path id="OR-3" class="st13" d="M599.7.9l-8.1,6.5-264.1,486.9-27.4,50.6v55.2h.3L599.7,3.3c0-.7,0-1.3.3-1.9,0-.2-.2-.3-.3-.5Z"/>
    <polygon id="OR-2" class="st10" points="299.9 286.5 300 356.8 450 58.7 431.3 41.3 422.5 45.9 299.9 286.5"/>
    <path id="OR-1" class="st2" d="M598.4,0l-158.4,36.7-8.7,4.6,18.7,17.3L599.5.1h-1.1Z"/>
    <path id="OL-3" class="st5" d="M299.7,599.9v-54.9l-27.4-50.6L8.3,7.6.5,1.3h0c0,.6-.2,1.2-.4,1.8l299.3,596.6h.4v.2h-.1,0Z"/>
    <polygon id="OL-2" class="st6" points="300 286.7 299.9 357 149.9 58.8 168.6 41.5 177.3 46.1 300 286.7"/>
    <path id="OL-1" class="st1" d="M159.8,36.9L1.4.2c-.1.1-.2.3-.3.4l148.8,58.2,18.7-17.3-8.7-4.6h-.1Z"/>
  </g>
  <g id="DownPart">
    <polygon id="DR-1" class="st8" points="319.7 412.9 327.5 494.2 591.6 7.4 478.1 98 478.1 98 319.7 412.9"/>
    <polygon id="DL-1" class="st3" points="280.2 413.1 272.4 494.4 8.3 7.6 121.7 98.2 121.8 98.2 280.2 413.1"/>
    <polygon id="DR-2" class="st4" points="300 356.8 300.1 544.8 327.5 494.2 319.7 412.9 316.4 378.1 300 356.8"/>
    <polygon id="DL-2" class="st11" points="299.9 357 299.8 545 272.4 494.4 280.2 413.1 283.5 378.3 299.9 357"/>
  </g>
  <g id="MiddlePart">
    <polygon id="MR-2" class="st14" points="300 356.8 300 356.8 316.4 378.1 319.7 412.9 478.1 98 450 58.7 300 356.8"/>
    <path id="MR-1" class="st7" d="M599.5.1l-149.5,58.5,28.2,39.4h0L591.6,7.4l8.1-6.5c0-.2-.2-.5-.3-.7h0q0-.1,0-.1Z"/>
    <polygon id="ML-2" class="st9" points="299.9 357 299.9 357 283.5 378.3 280.2 413.1 121.8 98.2 149.9 58.8 299.9 357"/>
    <path id="ML-1" class="st12" d="M1.1.6c-.2.2-.4.5-.6.7l7.8,6.2,113.5,90.6h0l28.2-39.3L1.1.6Z"/>
  </g>
</svg>